<svg id="Layer_1" data-name="Layer 1" xmlns="http://www.w3.org/2000/svg" viewBox="0 0 507.41 277.5"><defs><style>.cls-1{fill:#9e9e9e;}.cls-2{fill:#424242;}</style></defs><title>VRHeadset</title><rect class="cls-1" x="66.91" y="32.89" width="373.79" height="244.61"/><line class="cls-1" x1="67.35" y1="155.19" x2="440.7" y2="155.19"/><polygon class="cls-1" points="0 155.19 66.91 277.5 66.91 32.89 0 155.19"/><polygon class="cls-1" points="507.41 155.19 440.5 32.89 440.5 277.5 507.41 155.19"/><path class="cls-2" d="M215.94,276.47h97.28c9.72,0,12-15.65,2.79-19.29l-7.54-3a9.17,9.17,0,0,1-5-5.21L273.3,174c-3-7.55-12.31-7.69-15.52-.23l-32.41,75.48a9.14,9.14,0,0,1-4.84,4.95l-7.46,3C204,260.93,206.27,276.47,215.94,276.47Z" transform="translate(-11.5)"/><ellipse class="cls-2" cx="154.78" cy="155.71" rx="53.97" ry="62.18"/><ellipse class="cls-2" cx="352.83" cy="155.71" rx="53.97" ry="62.18"/><rect class="cls-2" x="100.81" width="305.99" height="32.89"/><rect class="cls-1" x="129.36" y="16.44" width="43.71" height="16.44"/><rect class="cls-1" x="330.97" y="16.44" width="43.71" height="16.44"/></svg>