<svg xmlns="http://www.w3.org/2000/svg" viewBox="0 0 456.5 260"><defs><style>.cls-1{fill:#754c24;}.cls-17,.cls-2,.cls-24,.cls-25,.cls-30,.cls-9{fill:none;}.cls-3{fill:#999;}.cls-14,.cls-4{fill:#f7b175;}.cls-5{fill:#2196f3;}.cls-6{fill:#c1272d;}.cls-7{fill:#fff;}.cls-8{fill:#9e9e9e;}.cls-9{stroke:#9e9e9e;stroke-linecap:round;stroke-linejoin:round;stroke-width:0;}.cls-10{fill:#424242;}.cls-11,.cls-26{fill:gray;}.cls-12{fill:#4caf50;}.cls-13{stroke:#000;}.cls-13,.cls-14,.cls-15,.cls-16,.cls-17,.cls-24,.cls-25,.cls-26,.cls-30{stroke-miterlimit:10;}.cls-14{stroke:#f7b175;}.cls-15,.cls-29{fill:#ff394f;}.cls-15,.cls-17,.cls-30{stroke:#ff394f;}.cls-16{fill:#00bcd4;stroke:#00bcd4;}.cls-17{stroke-width:4px;}.cls-18{fill:#42210b;}.cls-19{fill:#593609;}.cls-20{fill:#fcc062;}.cls-21{fill:#f9f;}.cls-22{font-size:8.24px;font-family:BradleyHandITCTT-Bold, Bradley Hand;font-weight:700;}.cls-23{fill:#f2f2f2;}.cls-24,.cls-25,.cls-26{stroke:gray;stroke-width:6px;}.cls-25{stroke-dasharray:12.01 6.01;}.cls-26{stroke-dasharray:12 6;}.cls-27{fill:#b3b3b3;}.cls-28{fill:#ff9800;}.cls-30{stroke-width:10px;}.cls-31{fill:#ed1c24;}.cls-32{fill:#d4145a;}</style></defs><title>newScreen</title><g id="Layer_1" data-name="Layer 1"><rect x="141.11" y="108.28" width="144.61" height="57.63"/><path class="cls-1" d="M651.22,195.28v51.63H512.61V195.28H651.22m6-6H506.61v63.63H657.22V189.28Z" transform="translate(-368.5 -84)"/><path class="cls-2" d="M771.1,139.78a10.83,10.83,0,0,1-8,.08v30h8Z" transform="translate(-368.5 -84)"/><path class="cls-3" d="M772.4,171.42a1.19,1.19,0,0,1-1.31-1v-.53h-8v.53a1.35,1.35,0,0,1-2.61,0v-.53h-5.83a1.51,1.51,0,1,0,0,2.92h25.11a1.51,1.51,0,1,0,0-2.92h-6v.53A1.19,1.19,0,0,1,772.4,171.42Z" transform="translate(-368.5 -84)"/><path class="cls-4" d="M750.44,125.39h-3v23.76c0,1.32,1.57,2.4,3.49,2.4h1.46c1.92,0,3.5-1.08,3.5-2.39V133.78C752.69,131.68,750.65,128.71,750.44,125.39Z" transform="translate(-368.5 -84)"/><path class="cls-4" d="M783.73,125.39a10.65,10.65,0,0,1-4.2,7.48v16.28c0,1.32,1.57,2.4,3.49,2.4h1.46c1.92,0,3.5-1.08,3.5-2.39V125.4h-4.25Z" transform="translate(-368.5 -84)"/><path class="cls-5" d="M783.73,125.39H788v-6.19c0-.93-1.57-1.69-3.49-1.69H783a6,6,0,0,0-2.25.4,13.94,13.94,0,0,0-1.57-1.41,15.68,15.68,0,0,1-11.78,4.85h0c-5.07,0-9.54-2.07-12-5.17a14.39,14.39,0,0,0-1.73,1.45,6.78,6.78,0,0,0-1.3-.12H750.9c-1.92,0-3.49.76-3.49,1.69v6.19h3c.21,3.32,2.26,6.29,5.41,8.38a17.62,17.62,0,0,0,3.06,1.61,20,20,0,0,0,2.3.78,1.61,1.61,0,0,1,.55-.1,1.42,1.42,0,0,1,1.11.49,22.86,22.86,0,0,0,8.42,0,1.42,1.42,0,0,1,1.11-.49,1.61,1.61,0,0,1,.55.1,20.06,20.06,0,0,0,2.08-.69,17,17,0,0,0,4.49-2.6A10.65,10.65,0,0,0,783.73,125.39Z" transform="translate(-368.5 -84)"/><path d="M772.4,136.07a1.42,1.42,0,0,0-1.11.49,22.86,22.86,0,0,1-8.42,0,1.42,1.42,0,0,0-1.11-.49,1.61,1.61,0,0,0-.55.1,20,20,0,0,1-2.3-.78,5.13,5.13,0,0,0,1.55,2.82v32.2a1.35,1.35,0,0,0,2.61,0V139.87a10.83,10.83,0,0,0,8-.08v30.63a1.35,1.35,0,0,0,2.61,0V138a5.06,5.06,0,0,0,1.33-2.53,20.06,20.06,0,0,1-2.08.69A1.61,1.61,0,0,0,772.4,136.07Z" transform="translate(-368.5 -84)"/><path class="cls-4" d="M787.69,100.26,786.47,102A4.23,4.23,0,0,0,787.69,100.26Z" transform="translate(-368.5 -84)"/><path class="cls-4" d="M747,100.57l-.31-.44A4.22,4.22,0,0,0,747,100.57Z" transform="translate(-368.5 -84)"/><path d="M767.43,84h0a16.38,16.38,0,0,0-10.33,3.45h20.65A16.38,16.38,0,0,0,767.43,84Z" transform="translate(-368.5 -84)"/><path d="M767.43,121.36h0a15.68,15.68,0,0,0,11.78-4.85,9.14,9.14,0,0,0,2.4-6v-4.35h-2.3a4.39,4.39,0,0,1-2.62,1.43h0a5.58,5.58,0,0,0-.18-1.42h-2.92a4.06,4.06,0,0,1,.29,1.51c0,2.79-2.88,5.05-6.44,5.05s-6.44-2.26-6.44-5.05a4.06,4.06,0,0,1,.29-1.51h-2.92a5.58,5.58,0,0,0-.18,1.42h0a4.39,4.39,0,0,1-2.62-1.43h-2.3v4.35a9,9,0,0,0,2.12,5.71C757.89,119.29,762.36,121.36,767.43,121.36Z" transform="translate(-368.5 -84)"/><path class="cls-4" d="M776.69,107.55h0a4.39,4.39,0,0,0,2.62-1.43h-2.8A5.58,5.58,0,0,1,776.69,107.55Z" transform="translate(-368.5 -84)"/><path class="cls-4" d="M758.18,107.56h0a5.58,5.58,0,0,1,.18-1.42h-2.8A4.39,4.39,0,0,0,758.18,107.56Z" transform="translate(-368.5 -84)"/><path class="cls-4" d="M767.12,106.32a4.22,4.22,0,0,1-1.24-.19h-4.59a4.06,4.06,0,0,0-.29,1.51c0,2.79,2.88,5.05,6.44,5.05s6.44-2.26,6.44-5.05a4.06,4.06,0,0,0-.29-1.51h-5.22A4.22,4.22,0,0,1,767.12,106.32Zm5,2.6h-.08a1.76,1.76,0,0,1,.08.51,2.28,2.28,0,0,1-1,1.78,6.91,6.91,0,0,1-7.36,0,2.28,2.28,0,0,1-1-1.78,1.76,1.76,0,0,1,.08-.51h0v-1.44h9.34Z" transform="translate(-368.5 -84)"/><path d="M762.79,108.91a1.76,1.76,0,0,0-.08.51,2.28,2.28,0,0,0,1,1.78,6.91,6.91,0,0,1,7.36,0,2.28,2.28,0,0,0,1-1.78,1.76,1.76,0,0,0-.08-.51h-9.29Z" transform="translate(-368.5 -84)"/><path class="cls-6" d="M763.75,111.21a6.91,6.91,0,0,0,7.36,0,6.91,6.91,0,0,0-7.36,0Z" transform="translate(-368.5 -84)"/><polygon class="cls-7" points="394.32 23.48 394.32 24.91 403.58 24.91 403.66 24.91 403.66 23.48 394.32 23.48"/><path class="cls-6" d="M768.36,106.13h-2.48a4.24,4.24,0,0,0,2.48,0Z" transform="translate(-368.5 -84)"/><path class="cls-8" d="M758.36,106.13h25.18v0l2.93-4.14,1.21-1.71,1.67-2.36-5.82-8.21v0h-5.76V88.56H774v1.11H760.2V88.56h-3.81v1.11h-5.45l-5.84,8.23,1.58,2.23.31.44,3.94,5.56h7.42Zm.24-12.38a4.47,4.47,0,0,1,4.71,4.15h7.86a4.74,4.74,0,0,1,9.41,0h0s0,0,0,0a4.74,4.74,0,0,1-9.41,0s0,0,0,0h-7.86s0,0,0,0a4.74,4.74,0,0,1-9.41,0s0,0,0,0h0A4.47,4.47,0,0,1,758.6,93.75Zm12.82,12.32h-8.48a.66.66,0,0,1-.25-1.3l.65-.2a.73.73,0,0,0,.42-.33l2.83-5.08a.79.79,0,0,1,1.35,0l2.63,5.05a.73.73,0,0,0,.44.35l.66.2A.66.66,0,0,1,771.42,106.06Z" transform="translate(-368.5 -84)"/><line class="cls-9" x1="394.81" y1="13.9" x2="402.67" y2="13.9"/><line class="cls-9" x1="382.48" y1="13.9" x2="385.4" y2="13.9"/><line class="cls-9" x1="412.08" y1="13.9" x2="415.02" y2="13.9"/><path class="cls-10" d="M771.66,104.77l-.66-.2a.73.73,0,0,1-.44-.35l-2.63-5.05a.79.79,0,0,0-1.35,0l-2.83,5.08a.73.73,0,0,1-.42.33l-.65.2a.66.66,0,0,0,.25,1.3h8.48A.66.66,0,0,0,771.66,104.77Z" transform="translate(-368.5 -84)"/><path class="cls-10" d="M753.9,97.9s0,0,0,0a4.74,4.74,0,0,0,9.41,0s0,0,0,0a4.74,4.74,0,0,0-9.41,0Z" transform="translate(-368.5 -84)"/><path class="cls-10" d="M775.88,102.12a4.47,4.47,0,0,0,4.71-4.19s0,0,0,0a4.74,4.74,0,0,0-9.41,0s0,0,0,0A4.47,4.47,0,0,0,775.88,102.12Z" transform="translate(-368.5 -84)"/><polygon class="cls-10" points="387.89 5.67 387.89 4.56 391.7 4.56 391.7 5.67 405.47 5.67 405.47 4.56 409.28 4.56 409.28 5.67 412.08 5.67 412.08 3.45 409.26 3.45 388.61 3.45 385.4 3.45 385.4 5.67 387.89 5.67"/><path class="cls-11" d="M657.49,189.28" transform="translate(-368.5 -84)"/><rect class="cls-3" x="3.6" y="92.01" width="43.12" height="3.66" rx="1.22" ry="1.22"/><path class="cls-12" d="M378.63,122.64c0-1.34-1.56-2.44-3.47-2.44H372c-1.91,0-3.47,1.1-3.47,2.44v8h10.13Z" transform="translate(-368.5 -84)"/><path class="cls-4" d="M372,164.92h3.18c1.91,0,3.47-1.1,3.47-2.44V130.67H368.5v31.81C368.5,163.82,370.06,164.92,372,164.92Z" transform="translate(-368.5 -84)"/><path class="cls-12" d="M418.69,122.64c0-1.34-1.56-2.44-3.47-2.44H412c-1.91,0-3.47,1.1-3.47,2.44v8h10.13Z" transform="translate(-368.5 -84)"/><path class="cls-4" d="M412,164.92h3.18c1.91,0,3.47-1.1,3.47-2.44V130.67H408.57v31.81C408.57,163.82,410.13,164.92,412,164.92Z" transform="translate(-368.5 -84)"/><ellipse class="cls-12" cx="25.02" cy="46.27" rx="20.26" ry="14.23"/><rect class="cls-12" x="11.99" y="51.97" width="26.05" height="13.21"/><path class="cls-13" d="M393.37,157.41a25.72,25.72,0,0,1,13.17,3.42V149.18h-26v11.48A25.88,25.88,0,0,1,393.37,157.41Z" transform="translate(-368.5 -84)"/><rect class="cls-13" x="32.25" y="71.48" width="5.79" height="22.97"/><rect class="cls-13" x="11.99" y="71.48" width="5.79" height="22.97"/><ellipse class="cls-14" cx="40.26" cy="24.96" rx="2.6" ry="2.7"/><ellipse class="cls-15" cx="40.26" cy="24.96" rx="1.41" ry="1.46"/><ellipse class="cls-14" cx="10.35" cy="24.96" rx="2.6" ry="2.7"/><ellipse class="cls-15" cx="10.35" cy="24.96" rx="1.41" ry="1.46"/><path class="cls-4" d="M408.61,116.84V97.4H378.85v20h0a1.32,1.32,0,0,0,.52,1L392.54,129a2.11,2.11,0,0,0,2.52,0l13.15-10.61A1.25,1.25,0,0,0,408.61,116.84Z" transform="translate(-368.5 -84)"/><rect x="16.01" width="29.01" height="14.48" rx="4.82" ry="4.82"/><ellipse cx="14.45" cy="12.55" rx="5.88" ry="6.08"/><path class="cls-16" d="M411.36,92.7a5.92,5.92,0,0,0-5.8-6h-7.88l1.24.62h6.64a5.31,5.31,0,0,1,5.21,5.39v.48l.6.29Z" transform="translate(-368.5 -84)"/><ellipse class="cls-13" cx="17.79" cy="24.96" rx="1.71" ry="1.77"/><ellipse class="cls-13" cx="32.52" cy="24.96" rx="1.71" ry="1.77"/><rect class="cls-13" x="12.36" y="19.49" width="11.01" height="2.93" rx="0.97" ry="0.97"/><rect class="cls-13" x="25.9" y="19.64" width="11.01" height="2.93" rx="0.97" ry="0.97"/><ellipse class="cls-15" cx="22.11" cy="29.81" rx="1.12" ry="1.23"/><ellipse class="cls-15" cx="28.36" cy="29.81" rx="1.12" ry="1.23"/><path class="cls-17" d="M388.08,117.83c2.59,7.09,11.43,4.3,11.45,0" transform="translate(-368.5 -84)"/><rect class="cls-8" x="10.46" y="18.59" width="29.51" height="13.4"/><line class="cls-8" x1="10.5" y1="25.29" x2="39.98" y2="25.29"/><polygon class="cls-8" points="5.18 25.29 10.46 31.99 10.46 18.59 5.18 25.29"/><polygon class="cls-8" points="45.24 25.29 39.96 18.59 39.96 31.99 45.24 25.29"/><path class="cls-10" d="M389.82,115.94h7.68c.77,0,.95-.86.22-1.06l-.6-.16a.65.65,0,0,1-.4-.29l-2.38-4.11a.76.76,0,0,0-1.23,0l-2.56,4.14a.65.65,0,0,1-.38.27l-.59.17C388.87,115.09,389.06,115.94,389.82,115.94Z" transform="translate(-368.5 -84)"/><ellipse class="cls-10" cx="17.4" cy="25.32" rx="4.26" ry="3.41"/><ellipse class="cls-10" cx="33.04" cy="25.32" rx="4.26" ry="3.41"/><rect class="cls-10" x="13.14" y="16.79" width="24.16" height="1.8"/><rect class="cls-8" x="15.39" y="17.69" width="3.45" height="0.9"/><rect class="cls-8" x="31.31" y="17.69" width="3.45" height="0.9"/><path class="cls-7" d="M822.56,295.61c0,10.22-12.51,18.5-27.94,18.5" transform="translate(-368.5 -84)"/><path class="cls-18" d="M794.62,316.34a2.23,2.23,0,1,1,0-4.45c7,0,13.46-1.77,18.32-5,4.63-3.06,7.18-7.07,7.18-11.28a2.45,2.45,0,0,1,4.88,0c0,5.67-3.26,11-9.19,14.88C810.12,314.26,802.59,316.34,794.62,316.34Z" transform="translate(-368.5 -84)"/><ellipse class="cls-18" cx="405.41" cy="232.78" rx="29.89" ry="27.22"/><rect class="cls-18" x="372.58" y="222.11" width="15.28" height="33.27" rx="5.82" ry="5.82"/><rect class="cls-18" x="424.75" y="222.11" width="15.28" height="33.27" rx="5.82" ry="5.82"/><ellipse class="cls-19" cx="426.22" cy="201.03" rx="10.26" ry="9.34"/><ellipse cx="426.22" cy="201.38" rx="6.35" ry="5.78"/><ellipse class="cls-19" cx="384.99" cy="200.67" rx="10.26" ry="9.34"/><ellipse cx="384.99" cy="201.03" rx="6.35" ry="5.78"/><ellipse class="cls-19" cx="405.31" cy="203.52" rx="20.42" ry="18.59"/><ellipse class="cls-20" cx="397.21" cy="201.83" rx="9.38" ry="8.72"/><ellipse class="cls-20" cx="413.61" cy="201.83" rx="9.38" ry="8.72"/><ellipse class="cls-20" cx="405.33" cy="215.53" rx="10.72" ry="9.96"/><ellipse class="cls-7" cx="397.21" cy="201.83" rx="5.44" ry="5.05"/><ellipse cx="397.29" cy="201.9" rx="2.37" ry="2.2"/><ellipse class="cls-7" cx="413.69" cy="201.9" rx="5.52" ry="5.13"/><ellipse cx="413.61" cy="201.98" rx="1.97" ry="1.83"/><ellipse class="cls-21" cx="402.73" cy="209.45" rx="1.18" ry="1.1"/><ellipse class="cls-21" cx="408.09" cy="209.45" rx="1.18" ry="1.1"/><ellipse class="cls-19" cx="410.3" cy="218.82" rx="2.13" ry="1.98"/><rect class="cls-20" x="387.08" y="245.94" width="13.83" height="9.43" rx="3.14" ry="3.14"/><rect class="cls-19" x="382.74" y="222.11" width="15.28" height="33.27" rx="5.82" ry="5.82"/><rect class="cls-20" x="778.6" y="329.94" width="13.83" height="9.43" rx="3.14" ry="3.14" transform="translate(1202.53 585.32) rotate(180)"/><rect class="cls-19" x="781.49" y="306.11" width="15.28" height="33.27" rx="5.82" ry="5.82" transform="translate(1209.76 561.48) rotate(-180)"/><rect class="cls-8" x="381.08" y="190.32" width="48.23" height="21.66"/><line class="cls-8" x1="381.14" y1="201.15" x2="429.31" y2="201.15"/><polygon class="cls-8" points="372.45 201.15 381.08 211.98 381.08 190.32 372.45 201.15"/><polygon class="cls-8" points="437.91 201.15 429.28 190.32 429.28 211.98 437.91 201.15"/><path class="cls-10" d="M767.32,295.89h12.55c1.25,0,1.55-1.39.36-1.71l-1-.26a1.06,1.06,0,0,1-.65-.46l-3.89-6.64a1.25,1.25,0,0,0-2,0l-4.18,6.68a1.07,1.07,0,0,1-.62.44l-1,.27C765.78,294.51,766.08,295.89,767.32,295.89Z" transform="translate(-368.5 -84)"/><ellipse class="cls-10" cx="392.42" cy="201.2" rx="6.96" ry="5.51"/><ellipse class="cls-10" cx="417.97" cy="201.2" rx="6.96" ry="5.51"/><rect class="cls-10" x="385.45" y="187.41" width="39.48" height="2.91"/><rect class="cls-8" x="389.14" y="188.87" width="5.64" height="1.46"/><rect class="cls-8" x="415.15" y="188.87" width="5.64" height="1.46"/><text class="cls-22" transform="translate(148.3 118.47) scale(1.3 1)">Lorem ipsum dolor sit amet, <tspan x="-2.51" y="9.89">consectetuer adipiscing elit, s </tspan><tspan x="0.18" y="19.77">u</tspan><tspan class="cls-23" x="5.27" y="19.77">A World Of Possibilities</tspan><tspan x="92.04" y="19.77">li</tspan><tspan x="97.43" y="19.77">-</tspan><tspan x="0.9" y="29.66">quam erat volutpat. Ut wisi </tspan><tspan x="-1.65" y="39.55" xml:space="preserve">enim ad minim veniam, qui  </tspan></text><line class="cls-11" x1="378.09" y1="16.02" x2="288.99" y2="105.28"/><line class="cls-24" x1="378.09" y1="16.02" x2="373.85" y2="20.27"/><line class="cls-25" x1="369.61" y1="24.52" x2="295.35" y2="98.91"/><line class="cls-24" x1="293.23" y1="101.04" x2="288.99" y2="105.28"/><path class="cls-26" d="M740.65,285" transform="translate(-368.5 -84)"/><line class="cls-26" x1="288.99" y1="168.91" x2="372.15" y2="200.95"/><line class="cls-26" x1="45.44" y1="25.18" x2="138.11" y2="105.28"/><rect class="cls-3" x="103.5" y="252.58" width="35.44" height="6.42" rx="3.21" ry="3.21"/><path class="cls-27" d="M512.73,241.45h0a2.33,2.33,0,0,0,2.87-1.25l3.3-8.5a2,2,0,0,0-1.38-2.59h0a2.33,2.33,0,0,0-2.87,1.25l-3.3,8.5A2,2,0,0,0,512.73,241.45Z" transform="translate(-368.5 -84)"/><path class="cls-4" d="M510.6,236.73a3.31,3.31,0,0,1,4.11-1.66l3.08,1a2.83,2.83,0,0,1,2,3.62l-13,33.23L497.6,270Z" transform="translate(-368.5 -84)"/><path class="cls-28" d="M500.34,280.67l-3.08-1a2.83,2.83,0,0,1-2-3.62l2.93-7.48,9.23,2.94L504.45,279A3.31,3.31,0,0,1,500.34,280.67Z" transform="translate(-368.5 -84)"/><path class="cls-4" d="M473.18,314.94a3.07,3.07,0,0,0,3.26,2.8h3.26a3.07,3.07,0,0,0,3.26-2.8V279.71h-9.79Z" transform="translate(-368.5 -84)"/><path class="cls-28" d="M479.71,269h-3.26a3.07,3.07,0,0,0-3.26,2.8v7.93H483v-7.93A3.07,3.07,0,0,0,479.71,269Z" transform="translate(-368.5 -84)"/><path class="cls-28" d="M501.38,274.28c0-5.52-5.26-10-11.7-10h0c-6.43,0-11.7,4.51-11.7,10v12.6h23.39Z" transform="translate(-368.5 -84)"/><path d="M489.68,301.58h0c6.43,0,11.7-4.51,11.7-10v-4.67H478v4.67C478,297.07,483.25,301.58,489.68,301.58Z" transform="translate(-368.5 -84)"/><rect x="112.75" y="207.78" width="5.71" height="48.07"/><rect x="124.17" y="207.78" width="5.71" height="48.07"/><ellipse class="cls-4" cx="133.21" cy="165.77" rx="4.44" ry="4.11"/><ellipse class="cls-29" cx="133.12" cy="165.68" rx="2.68" ry="2.49"/><ellipse class="cls-4" cx="109.55" cy="165.77" rx="4.44" ry="4.11"/><ellipse class="cls-29" cx="109.46" cy="165.68" rx="2.68" ry="2.49"/><path class="cls-30" d="M473.61,275.58" transform="translate(-368.5 -84)"/><rect class="cls-4" x="109.55" y="148.29" width="23.67" height="38.05" rx="11.83" ry="11.83"/><rect class="cls-3" x="106.13" y="156.26" width="12.02" height="5.83" rx="2.91" ry="2.91"/><rect class="cls-3" x="124.43" y="156.77" width="12.02" height="5.83" rx="2.91" ry="2.91"/><ellipse class="cls-13" cx="115" cy="165" rx="0.92" ry="0.86"/><ellipse class="cls-13" cx="127.94" cy="165" rx="0.92" ry="0.86"/><path d="M489.88,253.28c-3.27,0-5.92,2.32-5.92,5.18A4.85,4.85,0,0,0,485.6,262a7.42,7.42,0,0,1,8.61,0,4.84,4.84,0,0,0,1.59-3.53C495.8,255.6,493.15,253.28,489.88,253.28Z" transform="translate(-368.5 -84)"/><path class="cls-31" d="M485.6,262a6.5,6.5,0,0,0,8.61,0,7.42,7.42,0,0,0-8.61,0Z" transform="translate(-368.5 -84)"/><path class="cls-3" d="M497.28,258.3a7.51,7.51,0,0,0-15,0c0,.07,0,.14,0,.21h15C497.27,258.44,497.28,258.37,497.28,258.3Z" transform="translate(-368.5 -84)"/><rect class="cls-32" x="119.16" y="159.43" width="4.44" height="12.68" rx="2.22" ry="2.22"/></g></svg>