<svg xmlns="http://www.w3.org/2000/svg" viewBox="0 0 869.5 529"><defs><style>.cls-1{font-size:7.29px;font-family:MyriadPro-Regular, Myriad Pro;}.cls-2{letter-spacing:-0.01em;}.cls-3{letter-spacing:-0.01em;}.cls-4{letter-spacing:0em;}.cls-5{letter-spacing:-0.01em;}.cls-6{letter-spacing:0.01em;}.cls-7{letter-spacing:-0.01em;}.cls-10,.cls-11,.cls-12,.cls-13,.cls-14,.cls-8,.cls-9{font-size:10.94px;}.cls-10,.cls-11,.cls-12,.cls-13,.cls-14,.cls-24,.cls-9{fill:#fff;}.cls-10{letter-spacing:-0.04em;}.cls-11{letter-spacing:-0.03em;}.cls-12{letter-spacing:0em;}.cls-13{letter-spacing:0.02em;}.cls-14{letter-spacing:-0.03em;}.cls-15,.cls-26,.cls-34,.cls-35,.cls-36{fill:none;}.cls-16{fill:#999;}.cls-17,.cls-31{fill:#f7b175;}.cls-18{fill:#ff9800;}.cls-19,.cls-32{fill:#ff394f;}.cls-20{fill:#ed1c24;}.cls-21{fill:#d4145a;}.cls-22{fill:#2196f3;}.cls-23{fill:#c1272d;}.cls-25{fill:#9e9e9e;}.cls-26{stroke:#9e9e9e;stroke-linecap:round;stroke-linejoin:round;stroke-width:0;}.cls-27{fill:#424242;}.cls-28,.cls-37{fill:gray;}.cls-29{fill:#4caf50;}.cls-30{stroke:#000;}.cls-30,.cls-31,.cls-32,.cls-33,.cls-34,.cls-35,.cls-36,.cls-37{stroke-miterlimit:10;}.cls-31{stroke:#f7b175;}.cls-32,.cls-34{stroke:#ff394f;}.cls-33{fill:#00bcd4;stroke:#00bcd4;}.cls-34{stroke-width:4px;}.cls-35,.cls-36,.cls-37{stroke:gray;stroke-width:8px;}.cls-36{stroke-dasharray:12.22 6.11;}.cls-37{stroke-dasharray:12 6;}.cls-38{fill:#42210b;}.cls-39{fill:#593609;}.cls-40{fill:#fcc062;}.cls-41{fill:#f9f;}</style></defs><title>potentialScreen</title><g id="Layer_1" data-name="Layer 1"><rect x="285.54" y="176.5" width="198.01" height="75.6"/><path d="M853.55,185v74.6h-197V185h197m1-1h-199v76.6h199V184Z" transform="translate(-370.5 -8)"/><text class="cls-1" transform="translate(302.35 202.23) scale(1.1 1)"><tspan class="cls-2">L</tspan><tspan x="3.34" y="0">o</tspan><tspan class="cls-3" x="7.35" y="0">r</tspan><tspan x="9.66" y="0">em ipsum dolor sit ame</tspan><tspan class="cls-4" x="80.93" y="0">t</tspan><tspan x="83.32" y="0">, </tspan><tspan class="cls-5" x="86.38" y="0">c</tspan><tspan x="89.6" y="0">onse</tspan><tspan class="cls-6" x="104.2" y="0">c</tspan><tspan class="cls-7" x="107.56" y="0">t</tspan><tspan x="109.93" y="0">etuer </tspan><tspan x="0" y="13.13">adipis</tspan><tspan class="cls-8" x="18.08" y="13.13">c</tspan><tspan class="cls-9" x="22.99" y="13.13">A</tspan><tspan class="cls-10" x="29.68" y="13.13"> </tspan><tspan class="cls-11" x="31.61" y="13.13">W</tspan><tspan class="cls-9" x="40.5" y="13.13">o</tspan><tspan class="cls-12" x="46.51" y="13.13">r</tspan><tspan class="cls-9" x="50.13" y="13.13">ld </tspan><tspan class="cls-13" x="61.21" y="13.13">O</tspan><tspan class="cls-9" x="68.92" y="13.13">f </tspan><tspan class="cls-14" x="74.43" y="13.13">P</tspan><tspan class="cls-9" x="79.98" y="13.13">ossibilities</tspan></text><path class="cls-15" d="M747.44,389.68h0a18.31,18.31,0,0,1-4.07-.46v58.2h8.54V389.12A18.29,18.29,0,0,1,747.44,389.68Z" transform="translate(-370.5 -8)"/><path class="cls-16" d="M771,447.41H760.46v5.39h-8.54v-5.39h-8.54v5.39h-8.54v-5.39H724a3,3,0,0,0-3,3V455a3,3,0,0,0,3,3h47a3,3,0,0,0,3-3V450.4A3,3,0,0,0,771,447.41Z" transform="translate(-370.5 -8)"/><path class="cls-17" d="M729.95,373.12v-20h-7.32v58.12a4.77,4.77,0,0,0,4.88,4.62h4.88a5,5,0,0,0,2.44-.63V384.56A16,16,0,0,1,729.95,373.12Z" transform="translate(-370.5 -8)"/><path class="cls-17" d="M764.93,365.43v7.7a16,16,0,0,1-4.47,11V415a5,5,0,0,0,2.85.88h4.88a4.77,4.77,0,0,0,4.88-4.62V353.11h-8.14Z" transform="translate(-370.5 -8)"/><path class="cls-18" d="M729.95,365.43h35V353.11h8.14V340a4.77,4.77,0,0,0-4.88-4.62h-4.88a5.09,5.09,0,0,0-1.26.16,17.07,17.07,0,0,0-3.12-3.37,17.46,17.46,0,0,1-11.43,4.26h0A17.46,17.46,0,0,1,736,332.14a17.09,17.09,0,0,0-3.08,3.29,5.14,5.14,0,0,0-.54,0h-4.88a4.77,4.77,0,0,0-4.88,4.62v13.09h7.32Z" transform="translate(-370.5 -8)"/><path d="M743.37,452.8V389.22a18.31,18.31,0,0,0,4.07.46h0a18.29,18.29,0,0,0,4.47-.55V452.8h8.54V384.15a16,16,0,0,0,4.47-11v-7.7h-35v7.7a16,16,0,0,0,4.88,11.43V452.8Z" transform="translate(-370.5 -8)"/><path class="cls-19" d="M768.85,301.47a4.1,4.1,0,0,0-3.83-4.2v8.41A4.1,4.1,0,0,0,768.85,301.47Z" transform="translate(-370.5 -8)"/><path class="cls-19" d="M729.84,297.26a4.22,4.22,0,0,0,0,8.42H730v-8.41Z" transform="translate(-370.5 -8)"/><path class="cls-17" d="M747.5,336.46A17.56,17.56,0,0,0,765,319v-10.4a6.78,6.78,0,0,0,6.57-7,7,7,0,0,0-3.82-6.32,4.92,4.92,0,0,1-2.91,1H757a5,5,0,0,1-4.95-4.94h0a5,5,0,0,1,4.95-4.94h7.77A17.57,17.57,0,0,0,747.5,272h0a17.58,17.58,0,0,0-17.06,13.5h7.32a5,5,0,0,1,4.95,4.94h0a5,5,0,0,1-4.95,4.94h-7.9A4.91,4.91,0,0,1,728,295a6.94,6.94,0,0,0-4.55,6.63,6.78,6.78,0,0,0,6.57,7V319a17.56,17.56,0,0,0,17.52,17.47Zm21.35-35a4.1,4.1,0,0,1-3.83,4.2v-8.41A4.1,4.1,0,0,1,768.85,301.47Zm-11.63-2.61a1.45,1.45,0,1,1-1.37,1.45A1.41,1.41,0,0,1,757.22,298.86Zm-13,5.86V294.15a3.29,3.29,0,0,1,6.57,0v10.66a11.79,11.79,0,0,1,7.67,11.26c0,.12,0,.23,0,.35h-2.19a8.76,8.76,0,0,1-17.51,0h-2.46c0-.12,0-.23,0-.35A11.77,11.77,0,0,1,744.21,304.71Zm-6.16-5.86a1.45,1.45,0,1,1-1.37,1.45A1.41,1.41,0,0,1,738.06,298.86Zm-8.21,6.82a4.22,4.22,0,0,1,0-8.42H730v8.41Z" transform="translate(-370.5 -8)"/><path class="cls-16" d="M737.76,295.37a5,5,0,0,0,4.95-4.94h0a5,5,0,0,0-4.95-4.94h-7.9a5,5,0,0,0-4.95,4.94h0a5,5,0,0,0,4.95,4.94Z" transform="translate(-370.5 -8)"/><path class="cls-16" d="M752,291.31h0a5,5,0,0,0,4.95,4.94h7.9a5,5,0,0,0,4.95-4.94h0a5,5,0,0,0-4.95-4.94H757A5,5,0,0,0,752,291.31Z" transform="translate(-370.5 -8)"/><ellipse cx="367.56" cy="292.31" rx="1.37" ry="1.45"/><ellipse cx="386.72" cy="292.31" rx="1.37" ry="1.45"/><path d="M741.17,322.41a9.87,9.87,0,0,1,12.75-.08,8.76,8.76,0,0,0,2.34-5.91H738.74A8.76,8.76,0,0,0,741.17,322.41Z" transform="translate(-370.5 -8)"/><path class="cls-20" d="M741.17,322.41a8.74,8.74,0,0,0,12.75-.08,9.87,9.87,0,0,0-12.75.08Z" transform="translate(-370.5 -8)"/><path class="cls-16" d="M736.28,316.42h22.16c0-.12,0-.23,0-.35a11.79,11.79,0,0,0-7.67-11.26v4.28a3.29,3.29,0,0,1-6.57,0v-4.37a11.77,11.77,0,0,0-7.94,11.36C736.28,316.19,736.28,316.3,736.28,316.42Z" transform="translate(-370.5 -8)"/><path class="cls-21" d="M744.21,309.08a3.29,3.29,0,0,0,6.57,0V294.15a3.29,3.29,0,0,0-6.57,0v14.93Z" transform="translate(-370.5 -8)"/><path class="cls-15" d="M1103.26,129.86a14.4,14.4,0,0,1-13.52.18v65.57h13.52Z" transform="translate(-370.5 -8)"/><path class="cls-16" d="M1105.45,199a2.2,2.2,0,0,1-2.2-2.19v-1.16h-13.52v1.16a2.2,2.2,0,0,1-4.39,0v-1.16h-9.81a3.19,3.19,0,1,0,0,6.38h42.27a3.19,3.19,0,1,0,0-6.38h-10.15v1.16A2.2,2.2,0,0,1,1105.45,199Z" transform="translate(-370.5 -8)"/><path class="cls-17" d="M1068.48,98.43h-5.09l0,51.91c0,2.88,2.64,5.24,5.88,5.24h2.45c3.24,0,5.88-2.35,5.89-5.23l0-33.6A25.84,25.84,0,0,1,1068.48,98.43Z" transform="translate(-370.5 -8)"/><path class="cls-17" d="M1124.52,98.43a25.61,25.61,0,0,1-7.06,16.35l0,35.56c0,2.88,2.64,5.24,5.88,5.24h2.45c3.24,0,5.88-2.35,5.89-5.23l0-51.91h-7.16Z" transform="translate(-370.5 -8)"/><path class="cls-22" d="M1124.52,98.43h7.14V84.92c0-2-2.64-3.69-5.87-3.69h-2.45a8.15,8.15,0,0,0-3.79.88,27,27,0,0,0-2.64-3.07,23.91,23.91,0,0,1-19.83,10.59h0a23.92,23.92,0,0,1-20.29-11.3,27.13,27.13,0,0,0-2.91,3.18,8.9,8.9,0,0,0-2.18-.27h-2.45c-3.23,0-5.87,1.66-5.87,3.68V98.43h5.09a25.84,25.84,0,0,0,9.11,18.32,28.15,28.15,0,0,0,5.15,3.51,28.7,28.7,0,0,0,3.87,1.71,2.17,2.17,0,0,1,.93-.22,2.2,2.2,0,0,1,1.87,1.06,29.83,29.83,0,0,0,14.17,0,2.2,2.2,0,0,1,1.87-1.06,2.17,2.17,0,0,1,.93.22,28.73,28.73,0,0,0,3.5-1.51,28,28,0,0,0,7.56-5.68A25.61,25.61,0,0,0,1124.52,98.43Z" transform="translate(-370.5 -8)"/><path d="M1105.45,121.75a2.2,2.2,0,0,0-1.87,1.06,29.83,29.83,0,0,1-14.17,0,2.2,2.2,0,0,0-1.87-1.06,2.17,2.17,0,0,0-.93.22,28.7,28.7,0,0,1-3.87-1.71,12.46,12.46,0,0,0,2.6,6.17v70.35a2.2,2.2,0,0,0,4.39,0V130a14.4,14.4,0,0,0,13.52-.18v66.92a2.2,2.2,0,0,0,4.39,0V126a12.43,12.43,0,0,0,2.24-5.52,28.73,28.73,0,0,1-3.5,1.51A2.17,2.17,0,0,0,1105.45,121.75Z" transform="translate(-370.5 -8)"/><path class="cls-17" d="M1131.18,43.52l-2,3.74A9.6,9.6,0,0,0,1131.18,43.52Z" transform="translate(-370.5 -8)"/><path class="cls-17" d="M1062.69,44.2l-.53-1A9.6,9.6,0,0,0,1062.69,44.2Z" transform="translate(-370.5 -8)"/><path d="M1097.09,8h0a23.84,23.84,0,0,0-17.39,7.54h34.77A23.84,23.84,0,0,0,1097.09,8Z" transform="translate(-370.5 -8)"/><path d="M1097.09,89.62h0A23.91,23.91,0,0,0,1116.92,79a23.53,23.53,0,0,0,4-13.18v-9.5h-3.88a7.16,7.16,0,0,1-4.4,3.11h0a15.64,15.64,0,0,0-.31-3.11h-4.92a11.22,11.22,0,0,1,.49,3.3,10.85,10.85,0,1,1-21.69,0,11.22,11.22,0,0,1,.49-3.3h-4.92a15.64,15.64,0,0,0-.31,3.11h0a7.16,7.16,0,0,1-4.4-3.11h-3.88v9.5a23.52,23.52,0,0,0,3.58,12.47A23.92,23.92,0,0,0,1097.09,89.62Z" transform="translate(-370.5 -8)"/><path class="cls-17" d="M1112.67,59.46h0a7.16,7.16,0,0,0,4.4-3.11h-4.71A15.64,15.64,0,0,1,1112.67,59.46Z" transform="translate(-370.5 -8)"/><path class="cls-17" d="M1081.51,59.47h0a15.64,15.64,0,0,1,.31-3.11h-4.71A7.16,7.16,0,0,0,1081.51,59.47Z" transform="translate(-370.5 -8)"/><path class="cls-17" d="M1096.56,56.76a5.61,5.61,0,0,1-2.09-.4h-7.74a11.22,11.22,0,0,0-.49,3.3,10.85,10.85,0,1,0,21.69,0,11.22,11.22,0,0,0-.49-3.3h-8.8A5.61,5.61,0,0,1,1096.56,56.76Zm8.48,5.67h-.13a4.92,4.92,0,0,1,.13,1.12,5.41,5.41,0,0,1-1.76,3.89,9.44,9.44,0,0,1-12.4,0,5.41,5.41,0,0,1-1.76-3.89,4.92,4.92,0,0,1,.13-1.12h.06V59.28H1105Z" transform="translate(-370.5 -8)"/><path d="M1089.27,62.43a4.92,4.92,0,0,0-.13,1.12,5.41,5.41,0,0,0,1.76,3.89,9.44,9.44,0,0,1,12.4,0,5.41,5.41,0,0,0,1.76-3.89,4.92,4.92,0,0,0-.13-1.12h-15.64Z" transform="translate(-370.5 -8)"/><path class="cls-23" d="M1090.89,67.44a9.44,9.44,0,0,0,12.4,0,9.44,9.44,0,0,0-12.4,0Z" transform="translate(-370.5 -8)"/><polygon class="cls-24" points="718.83 51.28 718.83 54.43 734.41 54.43 734.54 54.43 734.54 51.28 718.83 51.28"/><path class="cls-23" d="M1098.65,56.35h-4.17a5.58,5.58,0,0,0,4.17,0Z" transform="translate(-370.5 -8)"/><path class="cls-25" d="M1081.82,56.35h42.38V56.3l4.94-9,2-3.74,2.82-5.16-9.79-17.93v-.05h-9.69V18h-6.42v2.42h-23.18V18h-6.42v2.42h-9.17l-9.82,18,2.66,4.87.53,1,6.64,12.15h12.5Zm.4-27.06c4.35,0,7.89,4.05,7.92,9.07h13.24c0-5,3.57-9.07,7.92-9.07s7.89,4.05,7.92,9.07h0s0,.05,0,.08c0,5.05-3.55,9.14-7.92,9.14s-7.92-4.09-7.92-9.14c0,0,0-.05,0-.08h-13.24s0,.05,0,.08c0,5.05-3.55,9.14-7.92,9.14s-7.92-4.09-7.92-9.14c0,0,0-.05,0-.08h0C1074.34,33.35,1077.87,29.3,1082.23,29.3Zm21.57,26.9h-14.28c-1.42,0-1.76-2.29-.42-2.83l1.1-.45a1.34,1.34,0,0,0,.71-.73l4.76-11.1a1.2,1.2,0,0,1,2.28,0l4.43,11a1.35,1.35,0,0,0,.74.77l1.11.44C1105.56,53.9,1105.23,56.2,1103.8,56.2Z" transform="translate(-370.5 -8)"/><line class="cls-26" x1="719.65" y1="30.37" x2="732.88" y2="30.37"/><line class="cls-26" x1="698.89" y1="30.37" x2="703.8" y2="30.37"/><line class="cls-26" x1="748.72" y1="30.37" x2="753.68" y2="30.37"/><path class="cls-27" d="M1104.21,53.36l-1.11-.44a1.35,1.35,0,0,1-.74-.77l-4.43-11a1.2,1.2,0,0,0-2.28,0l-4.76,11.1a1.34,1.34,0,0,1-.71.73l-1.1.45c-1.34.55-1,2.83.42,2.83h14.28C1105.23,56.2,1105.56,53.9,1104.21,53.36Z" transform="translate(-370.5 -8)"/><path class="cls-27" d="M1074.3,38.37s0,.05,0,.08c0,5.05,3.55,9.14,7.92,9.14s7.92-4.09,7.92-9.14c0,0,0-.05,0-.08,0-5-3.57-9.07-7.92-9.07S1074.34,33.35,1074.3,38.37Z" transform="translate(-370.5 -8)"/><path class="cls-27" d="M1111.3,47.59c4.38,0,7.92-4.09,7.92-9.14,0,0,0-.05,0-.08,0-5-3.57-9.07-7.92-9.07s-7.89,4.05-7.92,9.07c0,0,0,.05,0,.08C1103.38,43.49,1106.93,47.59,1111.3,47.59Z" transform="translate(-370.5 -8)"/><polygon class="cls-27" points="707.99 12.38 707.99 9.96 714.41 9.96 714.41 12.38 737.6 12.38 737.6 9.96 744.01 9.96 744.01 12.38 748.73 12.38 748.73 7.54 743.98 7.54 709.21 7.54 703.8 7.54 703.8 12.38 707.99 12.38"/><path class="cls-28" d="M855,184" transform="translate(-370.5 -8)"/><rect class="cls-16" x="6.06" y="467.01" width="72.59" height="7.99" rx="4" ry="4"/><path class="cls-29" d="M387.55,358.42a5.62,5.62,0,0,0-5.85-5.33h-5.36a5.62,5.62,0,0,0-5.85,5.33V376h17.05Z" transform="translate(-370.5 -8)"/><path class="cls-17" d="M376.35,450.78h5.36a5.62,5.62,0,0,0,5.85-5.33V376H370.5v69.5A5.62,5.62,0,0,0,376.35,450.78Z" transform="translate(-370.5 -8)"/><path class="cls-29" d="M455,358.42a5.62,5.62,0,0,0-5.85-5.33h-5.36a5.62,5.62,0,0,0-5.85,5.33V376H455Z" transform="translate(-370.5 -8)"/><path class="cls-17" d="M443.79,450.78h5.36a5.62,5.62,0,0,0,5.85-5.33V376H437.95v69.5A5.62,5.62,0,0,0,443.79,450.78Z" transform="translate(-370.5 -8)"/><ellipse class="cls-29" cx="42.11" cy="367.09" rx="34.1" ry="31.08"/><rect class="cls-29" x="20.19" y="379.53" width="43.85" height="28.86"/><path class="cls-30" d="M412.37,434.37a36,36,0,0,1,22.17,7.47V416.39H390.69v25.07A36,36,0,0,1,412.37,434.37Z" transform="translate(-370.5 -8)"/><rect class="cls-30" x="54.29" y="422.16" width="9.74" height="50.18"/><rect class="cls-30" x="20.19" y="422.16" width="9.74" height="50.18"/><ellipse class="cls-31" cx="67.77" cy="320.52" rx="4.38" ry="5.89"/><ellipse class="cls-32" cx="67.77" cy="320.52" rx="2.38" ry="3.2"/><ellipse class="cls-31" cx="17.43" cy="320.52" rx="4.38" ry="5.89"/><ellipse class="cls-32" cx="17.43" cy="320.52" rx="2.38" ry="3.2"/><path class="cls-17" d="M438,345.74V303.28H387.93v43.78h0a3.2,3.2,0,0,0,.87,2.09L411,372.32a2.92,2.92,0,0,0,4.25,0l22.14-23.17A3.27,3.27,0,0,0,438,345.74Z" transform="translate(-370.5 -8)"/><rect x="26.95" y="266" width="48.84" height="31.63" rx="15.82" ry="15.82"/><ellipse cx="24.32" cy="293.43" rx="9.89" ry="13.29"/><path class="cls-33" d="M442.66,293c0-7.22-4.4-13.12-9.77-13.12H419.61l2.09,1.35h11.18c4.83,0,8.77,5.28,8.77,11.78v1l1,.64Z" transform="translate(-370.5 -8)"/><ellipse class="cls-30" cx="29.95" cy="320.52" rx="2.88" ry="3.87"/><ellipse class="cls-30" cx="54.75" cy="320.52" rx="2.88" ry="3.87"/><rect class="cls-30" x="20.81" y="308.57" width="18.53" height="6.39" rx="3.2" ry="3.2"/><rect class="cls-30" x="43.6" y="308.91" width="18.53" height="6.39" rx="3.2" ry="3.2"/><ellipse class="cls-32" cx="37.22" cy="331.12" rx="1.88" ry="2.69"/><ellipse class="cls-32" cx="47.74" cy="331.12" rx="1.88" ry="2.69"/><path class="cls-34" d="M403.45,347.91c4.36,15.49,19.24,9.39,19.28.11" transform="translate(-370.5 -8)"/><rect class="cls-25" x="17.61" y="306.61" width="49.69" height="29.28"/><line class="cls-25" x1="17.67" y1="321.25" x2="67.3" y2="321.25"/><polygon class="cls-25" points="8.71 321.25 17.61 335.89 17.61 306.61 8.71 321.25"/><polygon class="cls-25" points="76.16 321.25 67.27 306.61 67.27 335.89 76.16 321.25"/><path class="cls-27" d="M406.39,343.77h12.93a1.19,1.19,0,0,0,.37-2.31l-1-.36a1.16,1.16,0,0,1-.67-.62l-4-9a1.13,1.13,0,0,0-2.06,0l-4.31,9a1.16,1.16,0,0,1-.64.59l-1,.36A1.19,1.19,0,0,0,406.39,343.77Z" transform="translate(-370.5 -8)"/><ellipse class="cls-27" cx="29.29" cy="321.31" rx="7.17" ry="7.44"/><ellipse class="cls-27" cx="55.62" cy="321.31" rx="7.17" ry="7.44"/><rect class="cls-27" x="22.12" y="302.67" width="40.67" height="3.94"/><rect class="cls-25" x="25.91" y="304.64" width="5.81" height="1.97"/><rect class="cls-25" x="52.71" y="304.64" width="5.81" height="1.97"/><line class="cls-28" x1="76.5" y1="321" x2="285.5" y2="253"/><line class="cls-35" x1="76.5" y1="321" x2="82.21" y2="319.14"/><line class="cls-36" x1="88.02" y1="317.25" x2="276.89" y2="255.8"/><line class="cls-35" x1="279.79" y1="254.86" x2="285.5" y2="253"/><line class="cls-37" x1="484.5" y1="176" x2="688.5" y2="30"/><path class="cls-24" d="M1235.89,431.29c0,22.32-21.06,40.42-47,40.42" transform="translate(-370.5 -8)"/><path class="cls-38" d="M1188.85,476.57c-2.27,0-4.11-2.18-4.11-4.86s1.84-4.86,4.11-4.86a47.15,47.15,0,0,0,30.84-10.91c7.79-6.7,12.08-15.45,12.08-24.65,0-2.68,1.84-4.86,4.11-4.86s4.11,2.18,4.11,4.86c0,12.39-5.49,23.94-15.47,32.51A54.59,54.59,0,0,1,1188.85,476.57Z" transform="translate(-370.5 -8)"/><ellipse class="cls-38" cx="783.49" cy="469.54" rx="50.32" ry="59.46"/><rect class="cls-38" x="728.23" y="446.22" width="25.72" height="72.67" rx="12.86" ry="12.86"/><rect class="cls-38" x="816.05" y="446.22" width="25.72" height="72.67" rx="12.86" ry="12.86"/><ellipse class="cls-39" cx="818.52" cy="400.17" rx="17.27" ry="20.4"/><ellipse cx="818.52" cy="400.95" rx="10.69" ry="12.63"/><ellipse class="cls-39" cx="749.12" cy="399.39" rx="17.27" ry="20.4"/><ellipse cx="749.12" cy="400.17" rx="10.69" ry="12.63"/><ellipse class="cls-39" cx="783.32" cy="405.61" rx="34.37" ry="40.61"/><ellipse class="cls-40" cx="769.68" cy="401.92" rx="15.8" ry="19.04"/><ellipse class="cls-40" cx="797.29" cy="401.92" rx="15.8" ry="19.04"/><ellipse class="cls-40" cx="783.36" cy="431.84" rx="18.05" ry="21.76"/><ellipse class="cls-24" cx="769.68" cy="401.92" rx="9.16" ry="11.04"/><ellipse cx="769.82" cy="402.08" rx="3.98" ry="4.8"/><ellipse class="cls-24" cx="797.43" cy="402.08" rx="9.29" ry="11.2"/><ellipse cx="797.29" cy="402.24" rx="3.32" ry="4"/><ellipse class="cls-41" cx="778.97" cy="418.56" rx="1.99" ry="2.4"/><ellipse class="cls-41" cx="788" cy="418.56" rx="1.99" ry="2.4"/><ellipse class="cls-39" cx="791.72" cy="439.04" rx="3.58" ry="4.32"/><rect class="cls-40" x="752.63" y="498.29" width="23.29" height="20.6" rx="10.3" ry="10.3"/><rect class="cls-39" x="745.33" y="446.22" width="25.72" height="72.67" rx="12.86" ry="12.86"/><rect class="cls-40" x="1161.88" y="506.29" width="23.29" height="20.6" rx="10.3" ry="10.3" transform="translate(1976.55 1025.19) rotate(-180)"/><rect class="cls-39" x="1166.75" y="454.22" width="25.72" height="72.67" rx="12.86" ry="12.86" transform="translate(1988.72 973.12) rotate(180)"/><rect class="cls-25" x="742.53" y="376.78" width="81.19" height="47.32"/><line class="cls-25" x1="742.63" y1="400.44" x2="823.72" y2="400.44"/><polygon class="cls-25" points="728 400.44 742.53 424.1 742.53 376.78 728 400.44"/><polygon class="cls-25" points="838.21 400.44 823.68 376.78 823.68 424.1 838.21 400.44"/><path class="cls-27" d="M1142.9,431.9H1164a1.92,1.92,0,0,0,.61-3.73l-1.64-.58a1.89,1.89,0,0,1-1.09-1l-6.55-14.51a1.85,1.85,0,0,0-3.37,0l-7,14.6a1.89,1.89,0,0,1-1.05,1l-1.62.59A1.92,1.92,0,0,0,1142.9,431.9Z" transform="translate(-370.5 -8)"/><ellipse class="cls-27" cx="761.62" cy="400.54" rx="11.72" ry="12.03"/><ellipse class="cls-27" cx="804.63" cy="400.54" rx="11.72" ry="12.03"/><rect class="cls-27" x="749.9" y="370.42" width="66.46" height="6.36"/><rect class="cls-25" x="756.1" y="373.6" width="9.49" height="3.18"/><rect class="cls-25" x="799.89" y="373.6" width="9.49" height="3.18"/><line class="cls-37" x1="484.5" y1="253" x2="727.5" y2="400"/></g></svg>