<svg id="Layer_1" data-name="Layer 1" xmlns="http://www.w3.org/2000/svg" viewBox="0 0 746.62 144.48"><defs><style>.cls-1{fill:#ffc107;}.cls-2{fill:#4caf50;}.cls-3{fill:#ff5722;}.cls-4{fill:#3f51b5;}.cls-5{fill:#fff;}.cls-5,.cls-6,.cls-7,.cls-8{stroke:#000;}.cls-5,.cls-6,.cls-7{stroke-miterlimit:10;}.cls-5,.cls-6,.cls-8{stroke-width:4px;}.cls-6,.cls-7,.cls-8{fill:none;}.cls-7{stroke-width:5px;}.cls-8{stroke-linejoin:round;}</style></defs><title>VydenLogoAndName</title><polygon class="cls-1" points="187.61 0 121.59 0 160.03 51.91 187.61 0"/><polygon class="cls-2" points="157.43 56.8 114.23 0 41.47 0 127.51 113.1 157.43 56.8"/><polygon class="cls-3" points="35.16 0 0.9 0 0 0.5 110.5 144.48 110.83 144.48 125.24 117.38 35.16 0"/><polygon class="cls-4" points="194.62 0 193.74 0 188.51 9.83 161.04 61.53 131.12 117.84 128.85 122.09 116.96 144.48 141.32 144.48 146.48 144.48 159.76 119.49 178.42 84.38 223.26 0 194.62 0"/><path class="cls-5" d="M326,195.73l56.1,132.89,59.35-132.89" transform="translate(-78.38 -189.75)"/><line class="cls-5" x1="376.08" y1="5.98" x2="410.23" y2="87.14"/><polyline class="cls-5" points="410.23 138.87 410.23 87.14 444.38 5.98"/><path class="cls-6" d="M623.92,263.1c.19-24.81-12.39-57.08-40.84-67.37-16.29-5.89-31.57-2.33-39,0V328.62c7.16,2.32,23,6.28,39.91,0C612.09,318.17,623.74,286.5,623.92,263.1Z" transform="translate(-78.38 -189.75)"/><line class="cls-7" x1="574.31" y1="5.98" x2="642.99" y2="5.98"/><line class="cls-7" x1="574.77" y1="72.88" x2="643.45" y2="72.88"/><line class="cls-7" x1="574.77" y1="138.41" x2="643.45" y2="138.41"/><polyline class="cls-8" points="674.08 138.41 674.08 6.44 744.62 142.1 744.62 2.75"/></svg>