<svg id="Layer_1" data-name="Layer 1" xmlns="http://www.w3.org/2000/svg" viewBox="0 0 746.62 144.48"><defs><style>.cls-1{fill:#ffc107;}.cls-2{fill:#4caf50;}.cls-3{fill:#ff5722;}.cls-4{fill:#3f51b5;}.cls-5,.cls-6,.cls-7{fill:none;stroke:#000;}.cls-5,.cls-6{stroke-miterlimit:10;}.cls-5,.cls-7{stroke-width:4px;}.cls-6{stroke-width:5px;}.cls-7{stroke-linejoin:round;}</style></defs><title>vydenLogoAndName</title><polygon class="cls-1" points="187.61 0 121.59 0 160.03 51.91 187.61 0"/><polygon class="cls-2" points="157.43 56.8 114.23 0 41.47 0 127.51 113.1 157.43 56.8"/><polygon class="cls-3" points="35.16 0 0.9 0 0 0.5 110.5 144.48 110.83 144.48 125.24 117.38 35.16 0"/><polygon class="cls-4" points="194.62 0 193.74 0 188.51 9.83 161.04 61.53 131.12 117.84 128.85 122.09 116.96 144.48 141.32 144.48 146.48 144.48 159.76 119.49 178.42 84.38 223.26 0 194.62 0"/><path class="cls-5" d="M693.92,205.1c.19-24.81-12.39-57.08-40.84-67.37-16.29-5.89-31.57-2.33-39,0V270.62c7.16,2.32,23,6.28,39.91,0C682.09,260.17,693.74,228.5,693.92,205.1Z" transform="translate(-148.38 -131.75)"/><line class="cls-6" x1="574.31" y1="5.98" x2="642.99" y2="5.98"/><line class="cls-6" x1="574.77" y1="72.88" x2="643.45" y2="72.88"/><line class="cls-6" x1="574.77" y1="138.41" x2="643.45" y2="138.41"/><polyline class="cls-7" points="674.08 138.41 674.08 6.44 744.62 142.1 744.62 2.75"/><line class="cls-5" x1="242.62" y1="6.25" x2="298.62" y2="139.25"/><line class="cls-5" x1="357.62" y1="6.25" x2="298.62" y2="139.25"/><line class="cls-5" x1="407.62" y1="87.25" x2="407.62" y2="139.25"/><line class="cls-5" x1="441.62" y1="6.25" x2="407.62" y2="87.25"/><line class="cls-5" x1="372.62" y1="6.25" x2="407.62" y2="87.25"/></svg>