<svg xmlns="http://www.w3.org/2000/svg" viewBox="0 0 891.02 397.85"><defs><style>.cls-1{fill:#754c24;}.cls-17,.cls-2,.cls-24,.cls-25,.cls-30,.cls-9{fill:none;}.cls-3{fill:#999;}.cls-14,.cls-4{fill:#f7b175;}.cls-5{fill:#2196f3;}.cls-6{fill:#c1272d;}.cls-7{fill:#fff;}.cls-8{fill:#9e9e9e;}.cls-9{stroke:#9e9e9e;stroke-linecap:round;stroke-linejoin:round;stroke-width:0;}.cls-10{fill:#424242;}.cls-11,.cls-26{fill:gray;}.cls-12{fill:#4caf50;}.cls-13{stroke:#000;}.cls-13,.cls-14,.cls-15,.cls-16,.cls-17,.cls-24,.cls-25,.cls-26,.cls-30{stroke-miterlimit:10;}.cls-14{stroke:#f7b175;}.cls-15,.cls-29{fill:#ff394f;}.cls-15,.cls-17,.cls-30{stroke:#ff394f;}.cls-16{fill:#00bcd4;stroke:#00bcd4;}.cls-17{stroke-width:4px;}.cls-18{fill:#42210b;}.cls-19{fill:#593609;}.cls-20{fill:#fcc062;}.cls-21{fill:#f9f;}.cls-22{font-size:8.71px;font-family:BradleyHandITCTT-Bold, Bradley Hand;font-weight:700;}.cls-23{fill:#f2f2f2;}.cls-24,.cls-25,.cls-26{stroke:gray;stroke-width:6px;}.cls-25{stroke-dasharray:12.77 6.38;}.cls-26{stroke-dasharray:12 6;}.cls-27{fill:#b3b3b3;}.cls-28{fill:#ff9800;}.cls-30{stroke-width:10px;}.cls-31{fill:#ed1c24;}.cls-32{fill:#d4145a;}.cls-33{font-size:40px;font-family:Phosphate-Inline, Phosphate;}.cls-34{letter-spacing:0.05em;}.cls-35{font-size:25px;font-family:Roboto-Regular, Roboto;}.cls-36{letter-spacing:0.02em;}.cls-37{letter-spacing:-0.01em;}.cls-38{letter-spacing:-0.02em;}.cls-39{letter-spacing:0.03em;}.cls-40{letter-spacing:-0.07em;}</style></defs><title>Screen</title><g id="Layer_1" data-name="Layer 1"><rect x="557.5" y="150.73" width="153.19" height="61.25"/><path class="cls-1" d="M871.67,230.47v55.25H724.47V230.47H871.67m6-6H718.47v67.25H877.67V224.47Z" transform="translate(-163.98 -76.74)"/><path class="cls-2" d="M998,172.15a11.45,11.45,0,0,1-8.49.09V204H998Z" transform="translate(-163.98 -76.74)"/><path class="cls-3" d="M999.41,205.59a1.26,1.26,0,0,1-1.38-1.06V204h-8.49v.56a1.43,1.43,0,0,1-2.76,0V204h-6.16a1.6,1.6,0,1,0,0,3.09h26.54a1.6,1.6,0,1,0,0-3.09h-6.37v.56A1.26,1.26,0,0,1,999.41,205.59Z" transform="translate(-163.98 -76.74)"/><path class="cls-4" d="M976.19,156.94H973v25.11c0,1.39,1.66,2.53,3.69,2.53h1.54c2,0,3.69-1.14,3.7-2.53V165.8C978.57,163.59,976.41,160.45,976.19,156.94Z" transform="translate(-163.98 -76.74)"/><path class="cls-4" d="M1011.38,156.94a11.25,11.25,0,0,1-4.43,7.91v17.2c0,1.39,1.66,2.53,3.69,2.53h1.54c2,0,3.69-1.14,3.7-2.53V156.94h-4.5Z" transform="translate(-163.98 -76.74)"/><path class="cls-5" d="M1011.38,156.94h4.48V150.4c0-1-1.66-1.78-3.69-1.78h-1.54a6.39,6.39,0,0,0-2.38.42,14.73,14.73,0,0,0-1.66-1.49,16.57,16.57,0,0,1-12.45,5.12h0c-5.36,0-10.09-2.19-12.74-5.47a15.21,15.21,0,0,0-1.83,1.54,7.17,7.17,0,0,0-1.37-.13h-1.54c-2,0-3.69.8-3.69,1.78v6.54h3.2c.22,3.51,2.38,6.64,5.72,8.86a18.62,18.62,0,0,0,3.23,1.7,21.08,21.08,0,0,0,2.43.83,1.71,1.71,0,0,1,.59-.1,1.5,1.5,0,0,1,1.18.51,24.16,24.16,0,0,0,8.9,0,1.5,1.5,0,0,1,1.18-.51,1.71,1.71,0,0,1,.59.1,21.2,21.2,0,0,0,2.2-.73,17.93,17.93,0,0,0,4.75-2.75A11.25,11.25,0,0,0,1011.38,156.94Z" transform="translate(-163.98 -76.74)"/><path d="M999.41,168.23a1.5,1.5,0,0,0-1.18.51,24.16,24.16,0,0,1-8.9,0,1.5,1.5,0,0,0-1.18-.51,1.71,1.71,0,0,0-.59.1,21.08,21.08,0,0,1-2.43-.83,5.42,5.42,0,0,0,1.63,3v34a1.43,1.43,0,0,0,2.76,0V172.24a11.45,11.45,0,0,0,8.49-.09v32.38a1.43,1.43,0,0,0,2.76,0V170.27a5.35,5.35,0,0,0,1.41-2.67,21.2,21.2,0,0,1-2.2.73A1.71,1.71,0,0,0,999.41,168.23Z" transform="translate(-163.98 -76.74)"/><path class="cls-4" d="M1015.56,130.38l-1.28,1.81A4.47,4.47,0,0,0,1015.56,130.38Z" transform="translate(-163.98 -76.74)"/><path class="cls-4" d="M972.56,130.71l-.33-.47A4.46,4.46,0,0,0,972.56,130.71Z" transform="translate(-163.98 -76.74)"/><path d="M994.16,113.19h0a17.31,17.31,0,0,0-10.92,3.65h21.83A17.31,17.31,0,0,0,994.16,113.19Z" transform="translate(-163.98 -76.74)"/><path d="M994.16,152.68h0a16.57,16.57,0,0,0,12.45-5.12,9.66,9.66,0,0,0,2.53-6.38v-4.59h-2.44a4.64,4.64,0,0,1-2.76,1.51h0a5.9,5.9,0,0,0-.19-1.5h-3.09a4.29,4.29,0,0,1,.31,1.6c0,3-3,5.34-6.81,5.34s-6.81-2.39-6.81-5.34a4.29,4.29,0,0,1,.31-1.6h-3.09a5.9,5.9,0,0,0-.19,1.5h0a4.64,4.64,0,0,1-2.76-1.51h-2.44v4.59a9.56,9.56,0,0,0,2.25,6C984.07,150.49,988.79,152.68,994.16,152.68Z" transform="translate(-163.98 -76.74)"/><path class="cls-4" d="M1003.94,138.09h0a4.64,4.64,0,0,0,2.76-1.51h-3A5.9,5.9,0,0,1,1003.94,138.09Z" transform="translate(-163.98 -76.74)"/><path class="cls-4" d="M984.37,138.09h0a5.9,5.9,0,0,1,.19-1.5h-3A4.64,4.64,0,0,0,984.37,138.09Z" transform="translate(-163.98 -76.74)"/><path class="cls-4" d="M993.82,136.78a4.46,4.46,0,0,1-1.31-.2h-4.86a4.29,4.29,0,0,0-.31,1.6c0,3,3,5.34,6.81,5.34s6.81-2.39,6.81-5.34a4.29,4.29,0,0,0-.31-1.6h-5.52A4.46,4.46,0,0,1,993.82,136.78Zm5.33,2.74h-.08a1.86,1.86,0,0,1,.08.54,2.41,2.41,0,0,1-1.1,1.88,7.31,7.31,0,0,1-7.78,0,2.41,2.41,0,0,1-1.1-1.88,1.86,1.86,0,0,1,.08-.54h0V138h9.87Z" transform="translate(-163.98 -76.74)"/><path d="M989.24,139.52a1.86,1.86,0,0,0-.08.54,2.41,2.41,0,0,0,1.1,1.88,7.31,7.31,0,0,1,7.78,0,2.41,2.41,0,0,0,1.1-1.88,1.86,1.86,0,0,0-.08-.54h-9.82Z" transform="translate(-163.98 -76.74)"/><path class="cls-6" d="M990.26,141.95a7.31,7.31,0,0,0,7.78,0,7.31,7.31,0,0,0-7.78,0Z" transform="translate(-163.98 -76.74)"/><polygon class="cls-7" points="825.31 61.27 825.31 62.79 835.09 62.79 835.17 62.79 835.17 61.27 825.31 61.27"/><path class="cls-6" d="M995.13,136.59h-2.62a4.48,4.48,0,0,0,2.62,0Z" transform="translate(-163.98 -76.74)"/><path class="cls-8" d="M984.57,136.59h26.61v0l3.1-4.37,1.28-1.81,1.77-2.5-6.15-8.68v0h-6.09V118h-4v1.17H986.51V118h-4v1.17h-5.76l-6.17,8.7,1.67,2.36.33.47,4.17,5.88h7.85Zm.25-13.09a4.73,4.73,0,0,1,5,4.39h8.31a5,5,0,0,1,9.95,0h0s0,0,0,0a5,5,0,0,1-10,0s0,0,0,0H989.8s0,0,0,0a5,5,0,0,1-10,0s0,0,0,0h0A4.73,4.73,0,0,1,984.82,123.5Zm13.55,13h-9a.7.7,0,0,1-.26-1.37l.69-.22a.77.77,0,0,0,.45-.35l3-5.37a.84.84,0,0,1,1.43,0l2.78,5.34a.77.77,0,0,0,.46.37l.69.21A.7.7,0,0,1,998.37,136.51Z" transform="translate(-163.98 -76.74)"/><line class="cls-9" x1="825.82" y1="51.15" x2="834.13" y2="51.15"/><line class="cls-9" x1="812.79" y1="51.15" x2="815.87" y2="51.15"/><line class="cls-9" x1="844.08" y1="51.15" x2="847.18" y2="51.15"/><path class="cls-10" d="M998.63,135.14l-.69-.21a.77.77,0,0,1-.46-.37l-2.78-5.34a.84.84,0,0,0-1.43,0l-3,5.37a.77.77,0,0,1-.45.35l-.69.22a.7.7,0,0,0,.26,1.37h9A.7.7,0,0,0,998.63,135.14Z" transform="translate(-163.98 -76.74)"/><path class="cls-10" d="M979.85,127.88s0,0,0,0a5,5,0,0,0,10,0s0,0,0,0a5,5,0,0,0-9.95,0Z" transform="translate(-163.98 -76.74)"/><path class="cls-10" d="M1003.08,132.34a4.72,4.72,0,0,0,5-4.42s0,0,0,0a5,5,0,0,0-9.95,0s0,0,0,0A4.72,4.72,0,0,0,1003.08,132.34Z" transform="translate(-163.98 -76.74)"/><polygon class="cls-10" points="818.5 42.45 818.5 41.27 822.53 41.27 822.53 42.45 837.09 42.45 837.09 41.27 841.12 41.27 841.12 42.45 844.08 42.45 844.08 40.1 841.1 40.1 819.26 40.1 815.87 40.1 815.87 42.45 818.5 42.45"/><path class="cls-11" d="M877.95,224.47" transform="translate(-163.98 -76.74)"/><rect class="cls-3" x="412.33" y="133.71" width="45.58" height="3.87" rx="1.22" ry="1.22"/><path class="cls-12" d="M583.21,154c0-1.42-1.65-2.58-3.67-2.58h-3.36c-2,0-3.67,1.16-3.67,2.58v8.49h10.71Z" transform="translate(-163.98 -76.74)"/><path class="cls-4" d="M576.17,198.72h3.36c2,0,3.67-1.16,3.67-2.58V162.52H572.5v33.62C572.5,197.56,574.15,198.72,576.17,198.72Z" transform="translate(-163.98 -76.74)"/><path class="cls-12" d="M625.55,154c0-1.42-1.65-2.58-3.67-2.58h-3.36c-2,0-3.67,1.16-3.67,2.58v8.49h10.71Z" transform="translate(-163.98 -76.74)"/><path class="cls-4" d="M618.52,198.72h3.36c2,0,3.67-1.16,3.67-2.58V162.52H614.85v33.62C614.85,197.56,616.5,198.72,618.52,198.72Z" transform="translate(-163.98 -76.74)"/><ellipse class="cls-12" cx="434.97" cy="85.37" rx="21.41" ry="15.04"/><rect class="cls-12" x="421.2" y="91.38" width="27.53" height="13.97"/><path class="cls-13" d="M598.79,190.78a27.19,27.19,0,0,1,13.92,3.62V182.08H585.18v12.13A27.35,27.35,0,0,1,598.79,190.78Z" transform="translate(-163.98 -76.74)"/><rect class="cls-13" x="442.61" y="112.01" width="6.12" height="24.28"/><rect class="cls-13" x="421.2" y="112.01" width="6.12" height="24.28"/><ellipse class="cls-14" cx="451.07" cy="62.83" rx="2.75" ry="2.85"/><ellipse class="cls-15" cx="451.07" cy="62.83" rx="1.49" ry="1.55"/><ellipse class="cls-14" cx="419.47" cy="62.83" rx="2.75" ry="2.85"/><ellipse class="cls-15" cx="419.47" cy="62.83" rx="1.49" ry="1.55"/><path class="cls-4" d="M614.89,147.9V127.36H583.44v21.18h0a1.39,1.39,0,0,0,.55,1l13.9,11.21a2.23,2.23,0,0,0,2.67,0l13.9-11.21A1.32,1.32,0,0,0,614.89,147.9Z" transform="translate(-163.98 -76.74)"/><rect x="425.44" y="36.46" width="30.66" height="15.3" rx="4.82" ry="4.82"/><ellipse cx="423.79" cy="49.73" rx="6.21" ry="6.43"/><path class="cls-16" d="M617.8,122.39a6.26,6.26,0,0,0-6.13-6.35h-8.33l1.32.65h7a5.61,5.61,0,0,1,5.5,5.7v.5l.63.31Z" transform="translate(-163.98 -76.74)"/><ellipse class="cls-13" cx="427.33" cy="62.83" rx="1.81" ry="1.87"/><ellipse class="cls-13" cx="442.9" cy="62.83" rx="1.81" ry="1.87"/><rect class="cls-13" x="421.59" y="57.05" width="11.64" height="3.09" rx="0.97" ry="0.97"/><rect class="cls-13" x="435.9" y="57.22" width="11.64" height="3.09" rx="0.97" ry="0.97"/><ellipse class="cls-15" cx="431.89" cy="67.96" rx="1.18" ry="1.3"/><ellipse class="cls-15" cx="438.49" cy="67.96" rx="1.18" ry="1.3"/><path class="cls-17" d="M593.19,149c2.74,7.49,12.08,4.54,12.11.05" transform="translate(-163.98 -76.74)"/><rect class="cls-8" x="419.58" y="56.1" width="31.2" height="14.17"/><line class="cls-8" x1="419.62" y1="63.19" x2="450.78" y2="63.19"/><polygon class="cls-8" points="414 63.19 419.58 70.27 419.58 56.1 414 63.19"/><polygon class="cls-8" points="456.34 63.19 450.76 56.1 450.76 70.27 456.34 63.19"/><path class="cls-10" d="M595,146.95h8.12c.81,0,1-.91.23-1.12l-.63-.17a.69.69,0,0,1-.42-.3L599.82,141a.81.81,0,0,0-1.3,0l-2.71,4.37a.69.69,0,0,1-.4.29l-.62.18C594,146,594.23,146.95,595,146.95Z" transform="translate(-163.98 -76.74)"/><ellipse class="cls-10" cx="426.91" cy="63.22" rx="4.5" ry="3.6"/><ellipse class="cls-10" cx="443.44" cy="63.22" rx="4.5" ry="3.6"/><rect class="cls-10" x="422.41" y="54.2" width="25.54" height="1.9"/><rect class="cls-8" x="424.79" y="55.15" width="3.65" height="0.95"/><rect class="cls-8" x="441.62" y="55.15" width="3.65" height="0.95"/><path class="cls-7" d="M1052.42,336.86c0,10.8-13.22,19.55-29.53,19.55" transform="translate(-163.98 -76.74)"/><path class="cls-18" d="M1022.89,358.76a2.36,2.36,0,1,1,0-4.7c7.35,0,14.22-1.87,19.36-5.28,4.89-3.24,7.59-7.47,7.59-11.93a2.59,2.59,0,0,1,5.16,0c0,6-3.45,11.58-9.71,15.73C1039.27,356.57,1031.32,358.76,1022.89,358.76Z" transform="translate(-163.98 -76.74)"/><ellipse class="cls-18" cx="837.02" cy="282.5" rx="31.6" ry="28.77"/><rect class="cls-18" x="802.33" y="271.22" width="16.15" height="35.16" rx="5.82" ry="5.82"/><rect class="cls-18" x="857.47" y="271.22" width="16.15" height="35.16" rx="5.82" ry="5.82"/><ellipse class="cls-19" cx="859.01" cy="248.93" rx="10.84" ry="9.87"/><ellipse cx="859.01" cy="249.31" rx="6.71" ry="6.11"/><ellipse class="cls-19" cx="815.44" cy="248.56" rx="10.84" ry="9.87"/><ellipse cx="815.44" cy="248.93" rx="6.71" ry="6.11"/><ellipse class="cls-19" cx="836.92" cy="251.57" rx="21.58" ry="19.65"/><ellipse class="cls-20" cx="828.35" cy="249.78" rx="9.92" ry="9.21"/><ellipse class="cls-20" cx="845.69" cy="249.78" rx="9.92" ry="9.21"/><ellipse class="cls-20" cx="836.94" cy="264.26" rx="11.33" ry="10.53"/><ellipse class="cls-7" cx="828.35" cy="249.78" rx="5.75" ry="5.34"/><ellipse cx="828.44" cy="249.86" rx="2.5" ry="2.32"/><ellipse class="cls-7" cx="845.77" cy="249.86" rx="5.83" ry="5.42"/><ellipse cx="845.69" cy="249.94" rx="2.08" ry="1.94"/><ellipse class="cls-21" cx="834.19" cy="257.83" rx="1.25" ry="1.16"/><ellipse class="cls-21" cx="839.85" cy="257.83" rx="1.25" ry="1.16"/><ellipse class="cls-19" cx="842.19" cy="267.74" rx="2.25" ry="2.09"/><rect class="cls-20" x="817.65" y="296.41" width="14.62" height="9.97" rx="3.14" ry="3.14"/><rect class="cls-19" x="813.07" y="271.22" width="16.15" height="35.16" rx="5.82" ry="5.82"/><rect class="cls-20" x="1005.95" y="373.14" width="14.62" height="9.97" rx="3.14" ry="3.14" transform="translate(1862.55 679.52) rotate(180)"/><rect class="cls-19" x="1009.01" y="347.95" width="16.15" height="35.16" rx="5.82" ry="5.82" transform="translate(1870.19 654.33) rotate(-180)"/><rect class="cls-8" x="811.31" y="237.62" width="50.97" height="22.89"/><line class="cls-8" x1="811.37" y1="249.06" x2="862.28" y2="249.06"/><polygon class="cls-8" points="802.18 249.06 811.31 260.51 811.31 237.62 802.18 249.06"/><polygon class="cls-8" points="871.38 249.06 862.25 237.62 862.25 260.51 871.38 249.06"/><path class="cls-10" d="M994,337.15h13.27c1.32,0,1.63-1.46.38-1.81l-1-.28a1.12,1.12,0,0,1-.68-.49l-4.11-7a1.33,1.33,0,0,0-2.12,0l-4.42,7.06a1.13,1.13,0,0,1-.66.46l-1,.28C992.4,335.7,992.72,337.15,994,337.15Z" transform="translate(-163.98 -76.74)"/><ellipse class="cls-10" cx="823.29" cy="249.11" rx="7.36" ry="5.82"/><ellipse class="cls-10" cx="850.3" cy="249.11" rx="7.36" ry="5.82"/><rect class="cls-10" x="815.93" y="234.54" width="41.73" height="3.08"/><rect class="cls-8" x="819.82" y="236.08" width="5.96" height="1.54"/><rect class="cls-8" x="847.32" y="236.08" width="5.96" height="1.54"/><text class="cls-22" transform="translate(565.27 161.67) scale(1.3 1)">Lorem ipsum dolor sit amet, <tspan x="-2.65" y="10.45">consectetuer adipiscing elit, s </tspan><tspan x="0.19" y="20.9">u</tspan><tspan class="cls-23" x="5.57" y="20.9">A World Of Possibilities</tspan><tspan x="97.28" y="20.9">li</tspan><tspan x="102.98" y="20.9">-</tspan><tspan x="0.95" y="31.35">quam erat volutpat. Ut wisi </tspan><tspan x="-1.74" y="41.8" xml:space="preserve">enim ad minim veniam, qui  </tspan></text><line class="cls-11" x1="808.15" y1="53.39" x2="713.97" y2="147.73"/><line class="cls-24" x1="808.15" y1="53.39" x2="803.91" y2="57.64"/><line class="cls-25" x1="799.4" y1="62.15" x2="720.46" y2="141.23"/><line class="cls-24" x1="718.21" y1="143.49" x2="713.97" y2="147.73"/><path class="cls-26" d="M965.85,325.59" transform="translate(-163.98 -76.74)"/><line class="cls-26" x1="713.97" y1="214.98" x2="801.87" y2="248.85"/><line class="cls-26" x1="456.55" y1="63.07" x2="554.5" y2="147.73"/><rect class="cls-3" x="517.92" y="303.43" width="37.46" height="6.78" rx="3.21" ry="3.21"/><path class="cls-27" d="M724.95,279.61h0a2.46,2.46,0,0,0,3-1.32l3.49-9a2.11,2.11,0,0,0-1.46-2.74h0a2.46,2.46,0,0,0-3,1.32l-3.49,9A2.11,2.11,0,0,0,724.95,279.61Z" transform="translate(-163.98 -76.74)"/><path class="cls-4" d="M722.69,274.62a3.5,3.5,0,0,1,4.35-1.76l3.25,1a3,3,0,0,1,2.16,3.83l-13.74,35.12L709,309.74Z" transform="translate(-163.98 -76.74)"/><path class="cls-28" d="M711.84,321.06l-3.25-1a3,3,0,0,1-2.16-3.83l3.09-7.91,9.76,3.11-3.09,7.91A3.5,3.5,0,0,1,711.84,321.06Z" transform="translate(-163.98 -76.74)"/><path class="cls-4" d="M683.15,357.29a3.24,3.24,0,0,0,3.45,3H690a3.24,3.24,0,0,0,3.45-3V320H683.15Z" transform="translate(-163.98 -76.74)"/><path class="cls-28" d="M690,308.7H686.6a3.24,3.24,0,0,0-3.45,3V320H693.5v-8.38A3.24,3.24,0,0,0,690,308.7Z" transform="translate(-163.98 -76.74)"/><path class="cls-28" d="M712.95,314.31c0-5.83-5.56-10.6-12.36-10.6h0c-6.8,0-12.36,4.77-12.36,10.6v13.32h24.73Z" transform="translate(-163.98 -76.74)"/><path d="M700.58,343.17h0c6.8,0,12.36-4.77,12.36-10.6v-4.93H688.22v4.93C688.22,338.4,693.78,343.17,700.58,343.17Z" transform="translate(-163.98 -76.74)"/><rect x="527.69" y="256.08" width="6.04" height="50.8"/><rect x="539.77" y="256.08" width="6.04" height="50.8"/><ellipse class="cls-4" cx="549.32" cy="211.67" rx="4.69" ry="4.35"/><ellipse class="cls-29" cx="549.23" cy="211.58" rx="2.83" ry="2.63"/><ellipse class="cls-4" cx="524.31" cy="211.67" rx="4.69" ry="4.35"/><ellipse class="cls-29" cx="524.21" cy="211.58" rx="2.83" ry="2.63"/><path class="cls-30" d="M683.6,315.69" transform="translate(-163.98 -76.74)"/><rect class="cls-4" x="524.31" y="193.19" width="25.01" height="40.22" rx="11.83" ry="11.83"/><rect class="cls-3" x="520.7" y="201.61" width="12.7" height="6.16" rx="2.91" ry="2.91"/><rect class="cls-3" x="540.04" y="202.16" width="12.7" height="6.16" rx="2.91" ry="2.91"/><ellipse class="cls-13" cx="530.08" cy="210.85" rx="0.98" ry="0.91"/><ellipse class="cls-13" cx="543.75" cy="210.85" rx="0.98" ry="0.91"/><path d="M700.79,292.12c-3.45,0-6.25,2.45-6.25,5.48a5.13,5.13,0,0,0,1.73,3.78,7.84,7.84,0,0,1,9.1-.05A5.12,5.12,0,0,0,707,297.6C707,294.57,704.25,292.12,700.79,292.12Z" transform="translate(-163.98 -76.74)"/><path class="cls-31" d="M696.27,301.38a6.87,6.87,0,0,0,9.1-.05,7.84,7.84,0,0,0-9.1.05Z" transform="translate(-163.98 -76.74)"/><path class="cls-3" d="M708.61,297.42a7.93,7.93,0,0,0-15.83,0c0,.07,0,.15,0,.22H708.6C708.61,297.57,708.61,297.5,708.61,297.42Z" transform="translate(-163.98 -76.74)"/><rect class="cls-32" x="534.47" y="204.96" width="4.69" height="13.41" rx="2.22" ry="2.22"/><text class="cls-33" transform="translate(135.82 33.34)"><tspan class="cls-34">V</tspan><tspan x="28.32" y="0">YDEN</tspan><tspan class="cls-35"><tspan x="-135.82" y="30">Vi</tspan><tspan class="cls-36" x="-113.85" y="30">r</tspan><tspan x="-104.78" y="30">tual class</tspan><tspan class="cls-37" x="1.56" y="30">r</tspan><tspan x="9.77" y="30">oom experience that </tspan><tspan x="-135.82" y="60">t</tspan><tspan class="cls-38" x="-127.66" y="60">r</tspan><tspan x="-119.68" y="60">ansforms learning.</tspan></tspan></text><text class="cls-33" transform="translate(136.06 146.86)">MOBILE<tspan class="cls-35"><tspan x="-129.85" y="30">Web based, allowing convenient </tspan><tspan x="-129.85" y="60">and po</tspan><tspan class="cls-36" x="-53.88" y="60">r</tspan><tspan x="-44.81" y="60">table use anywhere in the </tspan><tspan x="-129.85" y="90">world.</tspan></tspan></text><text class="cls-33" transform="translate(74.22 284.86)">EDU<tspan class="cls-39" x="68.48" y="0">C</tspan><tspan class="cls-40" x="94.04" y="0">A</tspan><tspan x="116.08" y="0">TIONAL</tspan><tspan class="cls-35"><tspan x="-73.01" y="30">Uninterrupted education at your </tspan><tspan x="-73.01" y="60">finger tips. </tspan></tspan></text></g></svg>