<svg xmlns="http://www.w3.org/2000/svg" xmlns:xlink="http://www.w3.org/1999/xlink" viewBox="0 0 1366 768"><defs><style>.cls-1{fill:#00bcd4;}.cls-2{fill:#4caf50;}.cls-3{fill:#fff;}.cls-4{fill:#073d44;opacity:0.4;}.cls-5{fill:url(#radial-gradient);}.cls-6{fill:url(#radial-gradient-3);}.cls-7{fill:url(#radial-gradient-5);}.cls-8{fill:url(#radial-gradient-6);}.cls-9{fill:url(#radial-gradient-7);}.cls-10{fill:url(#radial-gradient-8);}.cls-11{fill:url(#radial-gradient-9);}.cls-12{fill:url(#radial-gradient-11);}.cls-13{fill:url(#radial-gradient-13);}.cls-14{fill:url(#radial-gradient-14);}.cls-15{fill:url(#radial-gradient-15);}.cls-16{fill:url(#radial-gradient-17);}.cls-17{fill:url(#radial-gradient-19);}.cls-18{fill:url(#radial-gradient-21);}.cls-19{font-size:36px;fill:#f2f2f2;font-family:Roboto-Regular, Roboto;}.cls-20{letter-spacing:-0.01em;}</style><radialGradient id="radial-gradient" cx="828.14" cy="88.91" r="10.67" gradientTransform="translate(-68.19 -79.29) scale(1.59 1.55)" gradientUnits="userSpaceOnUse"><stop offset="0" stop-color="#fff"/><stop offset="0.41" stop-color="#fff" stop-opacity="0"/></radialGradient><radialGradient id="radial-gradient-3" cx="764.11" cy="186.04" r="10.67" xlink:href="#radial-gradient"/><radialGradient id="radial-gradient-5" cx="197.24" cy="462.02" r="10.67" xlink:href="#radial-gradient"/><radialGradient id="radial-gradient-6" cx="197.24" cy="462.02" r="10.67" xlink:href="#radial-gradient"/><radialGradient id="radial-gradient-7" cx="193.47" cy="289.62" r="10.67" xlink:href="#radial-gradient"/><radialGradient id="radial-gradient-8" cx="193.47" cy="289.62" r="10.67" xlink:href="#radial-gradient"/><radialGradient id="radial-gradient-9" cx="860.16" cy="370.67" r="10.67" xlink:href="#radial-gradient"/><radialGradient id="radial-gradient-11" cx="126.3" cy="250.37" r="10.67" xlink:href="#radial-gradient"/><radialGradient id="radial-gradient-13" cx="727.07" cy="487.11" r="10.67" xlink:href="#radial-gradient"/><radialGradient id="radial-gradient-14" cx="727.07" cy="487.11" r="10.67" xlink:href="#radial-gradient"/><radialGradient id="radial-gradient-15" cx="65.41" cy="418.92" r="10.67" xlink:href="#radial-gradient"/><radialGradient id="radial-gradient-17" cx="660.53" cy="83.76" r="10.67" xlink:href="#radial-gradient"/><radialGradient id="radial-gradient-19" cx="172.13" cy="359.74" r="10.67" xlink:href="#radial-gradient"/><radialGradient id="radial-gradient-21" cx="797.38" cy="290.9" r="10.67" xlink:href="#radial-gradient"/></defs><title>World</title><g id="BG"><rect x="0.5" y="0.5" width="1365" height="767"/><path d="M1365,1V767H1V1H1365m1-1H0V768H1366V0Z"/></g><g id="Land"><path class="cls-1" d="M541.94,253H539v.43A27.53,27.53,0,0,1,541.94,253Z"/><path d="M541.94,253H539v.43a27.53,27.53,0,0,1,2.94-.43Z"/><path class="cls-1" d="M394.73,614l.2.26.29-.26Z"/><path d="M395.23,614h-.49l.2.26.29-.26Z"/><path class="cls-1" d="M463.44,308H465v0C464.48,308,464,308,463.44,308Z"/><path d="M465,308c-.52,0-1,0-1.56,0H465v0Z"/><path class="cls-1" d="M637.09,592h0Z"/><path class="cls-1" d="M535.78,497H535c.25,0,.5,0,.75,0Z"/><path class="cls-1" d="M637.82,566H637c.27,0,.54,0,.81,0Z"/><path class="cls-1" d="M659.18,566l0,0c.26,0,.51,0,.77,0Z"/><path class="cls-1" d="M628,583V577.5a36.14,36.14,0,0,1-3,14.5h12A9,9,0,0,1,628,583Z"/><path class="cls-1" d="M637,566H626.12A36.17,36.17,0,0,1,628,577.5V575A9,9,0,0,1,637,566Z"/><path class="cls-1" d="M659.91,592h0Z"/><path class="cls-1" d="M1020.4,345.64a22.8,22.8,0,0,1,2.47,2.92q-.78-5.1-1.71-10.15a9.08,9.08,0,0,1-1.91.49Q1019.86,342.26,1020.4,345.64Z"/><path class="cls-1" d="M1015.49,321h2a348.75,348.75,0,0,0-16.31-51h-2A348.78,348.78,0,0,1,1015.49,321Z"/><path class="cls-1" d="M748,746.08a452.32,452.32,0,0,0,92.42-106.85A44,44,0,0,1,824,605h0a43.59,43.59,0,0,1,3.44-17H793.5a13.5,13.5,0,0,1,0-27h85.6q3.74-9.89,7-20H863a72.21,72.21,0,0,1-72-72h0a72.21,72.21,0,0,1,72-72h45q-.07-6.52-.33-13H874.5A22.57,22.57,0,0,1,852,361.5h0A22.57,22.57,0,0,1,874.5,339H902a9,9,0,0,1-1.26-17.9l0-.1H898a12,12,0,0,1-2.27-23.78q-3.29-13.78-7.41-27.22H870a44.13,44.13,0,0,1-44-44h0a43.83,43.83,0,0,1,12.55-30.68A37,37,0,0,1,832.39,183H825a12,12,0,0,1-12-12V161a12,12,0,0,1,7.23-11H793a35.1,35.1,0,0,1-35-35h0a35.09,35.09,0,0,1,18.53-30.85q-12.95-13-26.92-24.88A348.84,348.84,0,0,1,813.52,80h2a353.3,353.3,0,0,0-207-22.62A43,43,0,0,1,626,91.93h0A43.06,43.06,0,0,1,604.68,129H630.5a13.5,13.5,0,0,1,0,27h-66A13.54,13.54,0,0,1,551,142.5a13.4,13.4,0,0,1,2.36-7.59H511.74A42.81,42.81,0,0,1,483,146H435.19a351.37,351.37,0,0,0-98.34,162h42.71A27.56,27.56,0,0,1,352,280.44h0a27.56,27.56,0,0,1,27.56-27.56h69.7A25.89,25.89,0,0,1,426,227.19h0a25.88,25.88,0,0,1,25.81-25.81H582.19A25.88,25.88,0,0,1,608,227.19h0a25.89,25.89,0,0,1-23.26,25.68h43.7a27.57,27.57,0,0,1,26,18.29A38.64,38.64,0,0,1,690.5,246h62A38.61,38.61,0,0,1,791,284.5h0A38.61,38.61,0,0,1,752.5,323h-62a38.65,38.65,0,0,1-37.21-28.64A27.57,27.57,0,0,1,628.44,310H544.56a27.69,27.69,0,0,1-5.59-.57q0,.19,0,.37a31.62,31.62,0,0,1,21,29.7h0A31.59,31.59,0,0,1,528.5,371H325.39Q324,386.57,324,402.5q0,14.9,1.23,29.5H368a12,12,0,0,1,12,12v15a12,12,0,0,1-12,12H330.68a348.84,348.84,0,0,0,21.67,70H509.72a17.54,17.54,0,0,1,15.78-10H509a12,12,0,0,1-12-12V509a12,12,0,0,1,12-12H485a17,17,0,0,1-17-17h0a17,17,0,0,1,17-17h75.21a30.6,30.6,0,0,1,30.29-27h88A30.59,30.59,0,0,1,709,466.5h0A30.59,30.59,0,0,1,678.5,497H589a12,12,0,0,1,12,12v10a12,12,0,0,1-12,12h88.5A17.55,17.55,0,0,1,695,548.5h0A17.55,17.55,0,0,1,677.5,566H661a9,9,0,0,1,9,9v8a9,9,0,0,1-9,9h12a16,16,0,0,1,16,16h0a16,16,0,0,1-16,16H603.9a27.2,27.2,0,0,1,2.1,10.5h0A27.58,27.58,0,0,1,578.5,662H558.88A43,43,0,0,1,577,697h0a43.06,43.06,0,0,1-20.25,36.43A351.93,351.93,0,0,0,926.07,649h-2A350.89,350.89,0,0,1,748,746.08ZM540,172a16,16,0,0,1-16,16H482a16,16,0,0,1-16-16h0a16,16,0,0,1,16-16h42a16,16,0,0,1,16,16ZM744,650a12,12,0,0,1,12-12h56a12,12,0,0,1,0,24H756A12,12,0,0,1,744,650Z"/><path class="cls-1" d="M987.3,561h2q5-9.83,9.34-20h-2Q992.28,551.17,987.3,561Z"/><path class="cls-1" d="M1024.94,397h2c-.14-9.21-.66-18.33-1.49-27.36a22.46,22.46,0,0,1-1.69,3.4Q1024.75,384.92,1024.94,397Z"/><path class="cls-2" d="M465,252.92V251a12,12,0,0,1,12-12h50a12,12,0,0,1,12,12v2h2.94c.86-.08,1.74-.13,2.62-.13h40.17A25.89,25.89,0,0,0,608,227.19h0a25.88,25.88,0,0,0-25.81-25.81H451.81A25.88,25.88,0,0,0,426,227.19h0a25.89,25.89,0,0,0,23.26,25.68h14.17C464,252.87,464.48,252.89,465,252.92Z"/><path class="cls-2" d="M508,634.5a27.45,27.45,0,0,1,9.23-20.5H474.77A27.45,27.45,0,0,1,484,634.5h0a27.42,27.42,0,0,1-8.16,19.5h40.32A27.42,27.42,0,0,1,508,634.5Z"/><path class="cls-2" d="M830.18,149a452.27,452.27,0,0,0-53.65-64.85A35.09,35.09,0,0,0,758,115h0a35.1,35.1,0,0,0,35,35h27.23a11.88,11.88,0,0,1,4.77-1Z"/><path class="cls-2" d="M902.52,135.87c.53-.13,1.05-.27,1.59-.37A351.64,351.64,0,0,0,815.52,80h-2A351.64,351.64,0,0,1,902.52,135.87Z"/><path class="cls-2" d="M827.44,588A43.59,43.59,0,0,0,824,605h0a44,44,0,0,0,16.45,34.23A448.84,448.84,0,0,0,867.87,588Z"/><path class="cls-2" d="M924.05,649h2a352.47,352.47,0,0,0,63.24-88h-2A352.45,352.45,0,0,1,924.05,649Z"/><path class="cls-2" d="M879.1,561h-5.6a13.37,13.37,0,0,1,5.2,1Z"/><path class="cls-2" d="M908,397H863a72.21,72.21,0,0,0-72,72h0a72.21,72.21,0,0,0,72,72h23.11A449.62,449.62,0,0,0,908,402C908,400.33,908,398.67,908,397Z"/><path class="cls-2" d="M1027,397h-2c0,1.83.06,3.66.06,5.5A350.32,350.32,0,0,1,996.64,541h2A350.35,350.35,0,0,0,1027,402.5C1027,400.66,1027,398.83,1027,397Z"/><path class="cls-1" d="M575.18,614h-58A27.45,27.45,0,0,0,508,634.5h0a27.42,27.42,0,0,0,8.16,19.5H534c.67,0,1.34,0,2,.05A42.7,42.7,0,0,1,558.88,662H578.5A27.58,27.58,0,0,0,606,634.5h0a27.2,27.2,0,0,0-2.1-10.5H590A16.05,16.05,0,0,1,575.18,614Z"/><path class="cls-1" d="M475.84,654A27.42,27.42,0,0,0,484,634.5h0a27.45,27.45,0,0,0-9.23-20.5H395.23l-.29.26a353.48,353.48,0,0,0,35,39.74h45.9Z"/><path class="cls-2" d="M517,282.44v-2a27.57,27.57,0,0,1,22-27V251a12,12,0,0,0-12-12H477a12,12,0,0,0-12,12v1.92l1.06.08A27.56,27.56,0,0,1,491,280.44h0A27.56,27.56,0,0,1,465,308v0h63.5A31.21,31.21,0,0,1,539,309.8q0-.18,0-.37A27.57,27.57,0,0,1,517,282.44Z"/><path class="cls-2" d="M560,339.5h0a31.62,31.62,0,0,0-21-29.7A31.21,31.21,0,0,0,528.5,308H336.86a350.21,350.21,0,0,0-11.46,63H528.5A31.59,31.59,0,0,0,560,339.5Z"/><path class="cls-1" d="M541.94,253A27.48,27.48,0,0,0,517,280.44v2A27.54,27.54,0,0,0,544.56,310h83.87a27.57,27.57,0,0,0,24.86-15.64A38.21,38.21,0,0,1,652,284.5h0a38.15,38.15,0,0,1,2.4-13.33,27.57,27.57,0,0,0-26-18.29H544.56C543.68,252.87,542.8,252.92,541.94,253Z"/><path class="cls-2" d="M577,697h0a43.15,43.15,0,0,0-41-42.95c-.66,0-1.33-.05-2-.05H429.94q2.07,2,4.17,4H530.5A40.57,40.57,0,0,1,571,698.5h0a40.54,40.54,0,0,1-17.9,33.56c1.22.45,2.43.93,3.66,1.37A43.06,43.06,0,0,0,577,697Z"/><path class="cls-2" d="M461.76,614H575.18a15.84,15.84,0,0,1-1.18-6h0c0-.34,0-.67.05-1A16,16,0,0,1,590,592h35a36.14,36.14,0,0,0,3-14.5h0a36.17,36.17,0,0,0-1.88-11.5H525.5A17.55,17.55,0,0,1,508,548.5h0a17.31,17.31,0,0,1,1.72-7.5H352.35a351.15,351.15,0,0,0,42.39,73h67Z"/><path class="cls-1" d="M465,308a27.56,27.56,0,0,0,26-27.52h0A27.56,27.56,0,0,0,466.06,253l-1.06-.08c-.52,0-1,0-1.56,0H379.56A27.56,27.56,0,0,0,352,280.44h0A27.56,27.56,0,0,0,379.56,308h83.87C464,308,464.48,308,465,308Z"/><path class="cls-2" d="M614,480h0a17,17,0,0,1-17,17h81.5A30.59,30.59,0,0,0,709,466.5h0A30.59,30.59,0,0,0,678.5,436h-88a30.6,30.6,0,0,0-30.29,27H597A17,17,0,0,1,614,480Z"/><path class="cls-2" d="M380,459V444a12,12,0,0,0-12-12H325.23a351.34,351.34,0,0,0,5.45,39H368A12,12,0,0,0,380,459Z"/><path class="cls-2" d="M526,103a42.92,42.92,0,0,1-14.26,31.91h41.61A13.51,13.51,0,0,1,564.5,129h40.18A43.06,43.06,0,0,0,626,91.93h0a43,43,0,0,0-17.5-34.55,348.9,348.9,0,0,0-86,28.6A42.59,42.59,0,0,1,526,103Z"/><path class="cls-2" d="M838.55,195.32A43.83,43.83,0,0,0,826,226h0a44.13,44.13,0,0,0,44,44h18.32A446.88,446.88,0,0,0,865,209.87,37,37,0,0,1,838.55,195.32Z"/><path class="cls-2" d="M999.16,270h2a350.5,350.5,0,0,0-31.54-60h-2A350.49,350.49,0,0,1,999.16,270Z"/><path class="cls-2" d="M902.67,136h2l-.57-.5c-.54.1-1.07.24-1.59.37Z"/><path class="cls-1" d="M831,173a36.61,36.61,0,0,1,4-16.73q-2.39-3.66-4.85-7.27H825a11.88,11.88,0,0,0-4.77,1A12,12,0,0,0,813,161v10a12,12,0,0,0,12,12h7.39A36.69,36.69,0,0,1,831,173Z"/><path class="cls-3" d="M865,209.87a449.24,449.24,0,0,0-30-53.59A36.61,36.61,0,0,0,831,173h0a37.1,37.1,0,0,0,34,36.87Z"/><path class="cls-3" d="M967.64,210h2q-9.52-14.51-20.38-28-2.33-2.89-4.72-5.73A353.63,353.63,0,0,0,920,150q-7.46-7.22-15.34-14h-2A353.36,353.36,0,0,1,967.64,210Z"/><path class="cls-3" d="M511.74,134.91A42.92,42.92,0,0,0,526,103h0a42.59,42.59,0,0,0-3.54-17,351.94,351.94,0,0,0-74.64,48.72q-6.45,5.49-12.63,11.3H483A42.81,42.81,0,0,0,511.74,134.91Z"/><path class="cls-3" d="M553.36,134.91A13.4,13.4,0,0,0,551,142.5,13.54,13.54,0,0,0,564.5,156h66a13.5,13.5,0,0,0,0-27h-66A13.51,13.51,0,0,0,553.36,134.91Z"/><path class="cls-3" d="M652,284.5a38.21,38.21,0,0,0,1.29,9.86A38.65,38.65,0,0,0,690.5,323h62A38.61,38.61,0,0,0,791,284.5h0A38.61,38.61,0,0,0,752.5,246h-62a38.64,38.64,0,0,0-36.1,25.17A38.15,38.15,0,0,0,652,284.5Z"/><path class="cls-3" d="M1023.77,373a22.46,22.46,0,0,0,1.69-3.4q-1-10.63-2.59-21.08a22.8,22.8,0,0,0-2.47-2.92Q1022.61,359.18,1023.77,373Z"/><path class="cls-3" d="M886,309a12,12,0,0,0,12,12h2.72q-2.18-12-5-23.78A12,12,0,0,0,886,309Z"/><path class="cls-3" d="M902,339H874.5A22.57,22.57,0,0,0,852,361.5h0A22.57,22.57,0,0,0,874.5,384h33.14q-.9-22.81-4-45Z"/><path class="cls-1" d="M900.74,321.1A9,9,0,0,0,902,339h1.62Q902.36,330,900.74,321.1Z"/><path class="cls-1" d="M1019.24,338.9a9.08,9.08,0,0,0,1.91-.49q-1.62-8.79-3.68-17.41h-2Q1017.59,329.87,1019.24,338.9Z"/><path class="cls-3" d="M812,662a12,12,0,0,0,0-24H756a12,12,0,0,0,0,24Z"/><path class="cls-3" d="M878.7,562a13.37,13.37,0,0,0-5.2-1h-80a13.5,13.5,0,0,0,0,27h74.37Q873.68,575.23,878.7,562Z"/><rect class="cls-3" x="466" y="156" width="74" height="32" rx="16" ry="16"/><path class="cls-3" d="M571,698.5h0A40.63,40.63,0,0,0,548,662a40.67,40.67,0,0,0-17.5-4H434.11q2.14,2,4.31,4A351.45,351.45,0,0,0,553.1,732.06,40.54,40.54,0,0,0,571,698.5Z"/><path class="cls-3" d="M508,548.5A17.55,17.55,0,0,0,525.5,566H637.82l0,0A9,9,0,0,1,646,575v8a9,9,0,0,1-8.87,9H590a16,16,0,0,0-15.95,15c0,.33-.05.66-.05,1h0a15.84,15.84,0,0,0,1.18,6A16.05,16.05,0,0,0,590,624h83a16,16,0,0,0,16-16h0a16,16,0,0,0-16-16H659.91a9,9,0,0,1-8.91-9v-8a9,9,0,0,1,8.21-8.94l0,0H677.5A17.55,17.55,0,0,0,695,548.5h0A17.55,17.55,0,0,0,677.5,531H563a12,12,0,0,1-12-12V509a12,12,0,0,1,12-12h34a17,17,0,0,0,17-17h0a17,17,0,0,0-17-17H485a17,17,0,0,0-17,17h0a17,17,0,0,0,17,17h50.78l0,0A12,12,0,0,1,547,509v10a12,12,0,0,1-12,12h-9.5a17.54,17.54,0,0,0-15.78,10,17.31,17.31,0,0,0-1.72,7.5Z"/><path class="cls-1" d="M563,497a12,12,0,0,0-12,12v10a12,12,0,0,0,12,12h26a12,12,0,0,0,12-12V509a12,12,0,0,0-12-12H563Z"/><path class="cls-1" d="M535,531a12,12,0,0,0,12-12V509a12,12,0,0,0-11.25-12c-.25,0-.5,0-.75,0H509a12,12,0,0,0-12,12v10a12,12,0,0,0,12,12h26Z"/><path class="cls-1" d="M637,592h.11a9,9,0,0,0,8.87-9v-8a9,9,0,0,0-8.17-8.94c-.27,0-.54,0-.81,0a9,9,0,0,0-9,9v2.52h0V583A9,9,0,0,0,637,592Z"/><path class="cls-1" d="M659.21,566A9,9,0,0,0,651,575v8a9,9,0,0,0,8.91,9H661a9,9,0,0,0,9-9v-8a9,9,0,0,0-9-9h-1C659.72,566,659.46,566,659.21,566Z"/><path class="cls-1" d="M1004.5,339a22.41,22.41,0,0,1,15.9,6.64q-.55-3.38-1.16-6.74a8.65,8.65,0,0,1-1.24.1Z"/><path class="cls-4" d="M1004.5,339a22.41,22.41,0,0,1,15.9,6.64q-.55-3.38-1.16-6.74a8.65,8.65,0,0,1-1.24.1Z"/><path class="cls-1" d="M900.72,321l0,.1A8.93,8.93,0,0,1,902,321Z"/><path class="cls-4" d="M900.72,321l0,.1A8.93,8.93,0,0,1,902,321Z"/><path class="cls-1" d="M998,297a12,12,0,0,1,0,24h17.49a348.78,348.78,0,0,0-16.33-51H888.32q4.12,13.44,7.41,27.22A11.92,11.92,0,0,1,898,297Z"/><path class="cls-4" d="M998,297a12,12,0,0,1,0,24h17.49a348.78,348.78,0,0,0-16.33-51H888.32q4.12,13.44,7.41,27.22A11.92,11.92,0,0,1,898,297Z"/><path class="cls-1" d="M813.52,80a348.84,348.84,0,0,0-63.91-20.73q14,11.89,26.92,24.88A34.69,34.69,0,0,1,793,80Z"/><path class="cls-4" d="M813.52,80a348.84,348.84,0,0,0-63.91-20.73q14,11.89,26.92,24.88A34.69,34.69,0,0,1,793,80Z"/><path class="cls-1" d="M1004.5,384H907.64q.25,6.48.33,13h117q-.19-12.08-1.17-24A22.52,22.52,0,0,1,1004.5,384Z"/><path class="cls-4" d="M1004.5,384H907.64q.25,6.48.33,13h117q-.19-12.08-1.17-24A22.52,22.52,0,0,1,1004.5,384Z"/><path class="cls-1" d="M840.45,639.23A452.32,452.32,0,0,1,748,746.08a350.89,350.89,0,0,0,176-97.08H868A43.74,43.74,0,0,1,840.45,639.23Z"/><path class="cls-4" d="M840.45,639.23A452.32,452.32,0,0,1,748,746.08a350.89,350.89,0,0,0,176-97.08H868A43.74,43.74,0,0,1,840.45,639.23Z"/><path class="cls-1" d="M879.1,561H987.3q5-9.83,9.34-20H886.11Q882.83,551.1,879.1,561Z"/><path class="cls-4" d="M879.1,561H987.3q5-9.83,9.34-20H886.11Q882.83,551.1,879.1,561Z"/><path class="cls-2" d="M839.91,149A36.94,36.94,0,0,1,868,136h34l.55-.13a351.64,351.64,0,0,0-89-55.87H793a34.69,34.69,0,0,0-16.47,4.15A452.27,452.27,0,0,1,830.18,149Z"/><path class="cls-4" d="M839.91,149A36.94,36.94,0,0,1,868,136h34l.55-.13a351.64,351.64,0,0,0-89-55.87H793a34.69,34.69,0,0,0-16.47,4.15A452.27,452.27,0,0,1,830.18,149Z"/><path class="cls-2" d="M878.7,562a13.5,13.5,0,0,1-5.2,26h-5.63a448.84,448.84,0,0,1-27.42,51.23A43.74,43.74,0,0,0,868,649h56.05a352.45,352.45,0,0,0,63.25-88H879.1Z"/><path class="cls-4" d="M878.7,562a13.5,13.5,0,0,1-5.2,26h-5.63a448.84,448.84,0,0,1-27.42,51.23A43.74,43.74,0,0,0,868,649h56.05a352.45,352.45,0,0,0,63.25-88H879.1Z"/><path class="cls-2" d="M908,402a449.62,449.62,0,0,1-21.89,139H996.64A350.32,350.32,0,0,0,1025,402.5c0-1.84,0-3.67-.06-5.5H908C908,398.67,908,400.33,908,402Z"/><path class="cls-4" d="M908,402a449.62,449.62,0,0,1-21.89,139H996.64A350.32,350.32,0,0,0,1025,402.5c0-1.84,0-3.67-.06-5.5H908C908,398.67,908,400.33,908,402Z"/><path class="cls-2" d="M967.64,210H868c-1,0-2-.05-3-.13A446.88,446.88,0,0,1,888.32,270H999.16A350.49,350.49,0,0,0,967.64,210Z"/><path class="cls-4" d="M967.64,210H868c-1,0-2-.05-3-.13A446.88,446.88,0,0,1,888.32,270H999.16A350.49,350.49,0,0,0,967.64,210Z"/><path class="cls-2" d="M902.67,136l-.15-.13L902,136Z"/><path class="cls-4" d="M902.67,136l-.15-.13L902,136Z"/><path class="cls-1" d="M839.91,149h-9.73q2.46,3.61,4.85,7.27a37.32,37.32,0,0,1,4-6.27Q839.49,149.49,839.91,149Z"/><path class="cls-4" d="M839.91,149h-9.73q2.46,3.61,4.85,7.27a37.32,37.32,0,0,1,4-6.27Q839.49,149.49,839.91,149Z"/><path class="cls-3" d="M868,136a36.94,36.94,0,0,0-28.09,13q-.42.49-.83,1a37.32,37.32,0,0,0-4,6.27,449.24,449.24,0,0,1,30,53.59c1,.08,2,.13,3,.13h99.64a353.36,353.36,0,0,0-65-74H868Z"/><path class="cls-4" d="M868,136a36.94,36.94,0,0,0-28.09,13q-.42.49-.83,1a37.32,37.32,0,0,0-4,6.27,449.24,449.24,0,0,1,30,53.59c1,.08,2,.13,3,.13h99.64a353.36,353.36,0,0,0-65-74H868Z"/><path class="cls-3" d="M1023.77,373q-1.15-13.87-3.36-27.41a22.41,22.41,0,0,0-15.9-6.64H972a9,9,0,0,1,0-18h26a12,12,0,0,0,0-24H898a11.92,11.92,0,0,0-2.27.22q2.81,11.77,5,23.78H948a9,9,0,0,1,0,18H903.62q3.11,22.17,4,45h96.86A22.52,22.52,0,0,0,1023.77,373Z"/><path class="cls-4" d="M1023.77,373q-1.15-13.87-3.36-27.41a22.41,22.41,0,0,0-15.9-6.64H972a9,9,0,0,1,0-18h26a12,12,0,0,0,0-24H898a11.92,11.92,0,0,0-2.27.22q2.81,11.77,5,23.78H948a9,9,0,0,1,0,18H903.62q3.11,22.17,4,45h96.86A22.52,22.52,0,0,0,1023.77,373Z"/><path class="cls-1" d="M948,339a9,9,0,0,0,0-18H902a8.93,8.93,0,0,0-1.26.1q1.61,8.89,2.88,17.9Z"/><path class="cls-4" d="M948,339a9,9,0,0,0,0-18H902a8.93,8.93,0,0,0-1.26.1q1.61,8.89,2.88,17.9Z"/><path class="cls-1" d="M973,321h-1a9,9,0,0,0,0,18h46a8.65,8.65,0,0,0,1.24-.1q-1.65-9-3.76-17.9H973Z"/><path class="cls-4" d="M973,321h-1a9,9,0,0,0,0,18h46a8.65,8.65,0,0,0,1.24-.1q-1.65-9-3.76-17.9H973Z"/><path class="cls-3" d="M873.5,588a13.5,13.5,0,0,0,5.2-26q-5,13.18-10.83,26Z"/><path class="cls-4" d="M873.5,588a13.5,13.5,0,0,0,5.2-26q-5,13.18-10.83,26Z"/><path class="cls-5" d="M1251,42.32a16.6,16.6,0,1,0,17,16.59A16.8,16.8,0,0,0,1251,42.32Zm5.71,19-3.35,3.35h-4.73l-3.35-3.35V56.55l3.35-3.35h4.73l3.35,3.35Z"/><path class="cls-3" d="M1245.09,44.63c7.1,17.14,8.77,15.46-8.37,8.37,17.14,7.1,17.14,4.73,0,11.83,17.14-7.1,15.46-8.77,8.37,8.37,7.1-17.14,4.73-17.14,11.83,0-7.1-17.14-8.77-15.46,8.37-8.37-17.14-7.1-17.14-4.73,0-11.83-17.14,7.1-15.46,8.77-8.37-8.37C1249.82,61.77,1252.18,61.77,1245.09,44.63Z"/><polygon class="cls-5" points="1248.64 53.2 1245.29 56.55 1245.29 61.28 1248.64 64.63 1253.37 64.63 1256.71 61.28 1256.71 56.55 1253.37 53.2 1248.64 53.2"/><path class="cls-6" d="M1149,193.32a16.6,16.6,0,1,0,17,16.59A16.8,16.8,0,0,0,1149,193.32Zm5.71,19-3.35,3.35h-4.73l-3.35-3.35v-4.73l3.35-3.35h4.73l3.35,3.35Z"/><path class="cls-3" d="M1143.09,195.63c7.1,17.14,8.77,15.46-8.37,8.37,17.14,7.1,17.14,4.73,0,11.83,17.14-7.1,15.46-8.77,8.37,8.37,7.1-17.14,4.73-17.14,11.83,0-7.1-17.14-8.77-15.46,8.37-8.37-17.14-7.1-17.14-4.73,0-11.83-17.14,7.1-15.46,8.77-8.37-8.37C1147.82,212.77,1150.18,212.77,1143.09,195.63Z"/><polygon class="cls-6" points="1146.64 204.2 1143.29 207.55 1143.29 212.28 1146.64 215.63 1151.37 215.63 1154.71 212.28 1154.71 207.55 1151.37 204.2 1146.64 204.2"/><path class="cls-7" d="M246,622.32a16.6,16.6,0,1,0,17,16.59A16.8,16.8,0,0,0,246,622.32Zm5.71,19-3.35,3.35h-4.73l-3.35-3.35v-4.73l3.35-3.35h4.73l3.35,3.35Z"/><path class="cls-3" d="M240.09,624.63c7.1,17.14,8.77,15.46-8.37,8.37,17.14,7.1,17.14,4.73,0,11.83,17.14-7.1,15.46-8.77,8.37,8.37,7.1-17.14,4.73-17.14,11.83,0-7.1-17.14-8.77-15.46,8.37-8.37-17.14-7.1-17.14-4.73,0-11.83-17.14,7.1-15.46,8.77-8.37-8.37C244.82,641.77,247.18,641.77,240.09,624.63Z"/><polygon class="cls-8" points="243.64 633.2 240.29 636.55 240.29 641.28 243.64 644.63 248.37 644.63 251.71 641.28 251.71 636.55 248.37 633.2 243.64 633.2"/><path class="cls-9" d="M240,354.32a16.6,16.6,0,1,0,17,16.59A16.8,16.8,0,0,0,240,354.32Zm5.71,19-3.35,3.35h-4.73l-3.35-3.35v-4.73l3.35-3.35h4.73l3.35,3.35Z"/><path class="cls-3" d="M234.09,356.63c7.1,17.14,8.77,15.46-8.37,8.37,17.14,7.1,17.14,4.73,0,11.83,17.14-7.1,15.46-8.77,8.37,8.37,7.1-17.14,4.73-17.14,11.83,0-7.1-17.14-8.77-15.46,8.37-8.37-17.14-7.1-17.14-4.73,0-11.83-17.14,7.1-15.46,8.77-8.37-8.37C238.82,373.77,241.18,373.77,234.09,356.63Z"/><polygon class="cls-10" points="237.64 365.2 234.29 368.55 234.29 373.28 237.64 376.63 242.37 376.63 245.71 373.28 245.71 368.55 242.37 365.2 237.64 365.2"/><path class="cls-11" d="M1302,480.32a16.6,16.6,0,1,0,17,16.59A16.8,16.8,0,0,0,1302,480.32Zm5.71,19-3.35,3.35h-4.73l-3.35-3.35v-4.73l3.35-3.35h4.73l3.35,3.35Z"/><path class="cls-3" d="M1296.09,482.63c7.1,17.14,8.77,15.46-8.37,8.37,17.14,7.1,17.14,4.73,0,11.83,17.14-7.1,15.46-8.77,8.37,8.37,7.1-17.14,4.73-17.14,11.83,0-7.1-17.14-8.77-15.46,8.37-8.37-17.14-7.1-17.14-4.73,0-11.83-17.14,7.1-15.46,8.77-8.37-8.37C1300.82,499.77,1303.18,499.77,1296.09,482.63Z"/><polygon class="cls-11" points="1299.64 491.2 1296.29 494.55 1296.29 499.28 1299.64 502.63 1304.37 502.63 1307.71 499.28 1307.71 494.55 1304.37 491.2 1299.64 491.2"/><path class="cls-12" d="M133,293.32a16.6,16.6,0,1,0,17,16.59A16.8,16.8,0,0,0,133,293.32Zm5.71,19-3.35,3.35h-4.73l-3.35-3.35v-4.73l3.35-3.35h4.73l3.35,3.35Z"/><path class="cls-3" d="M127.09,295.63c7.1,17.14,8.77,15.46-8.37,8.37,17.14,7.1,17.14,4.73,0,11.83,17.14-7.1,15.46-8.77,8.37,8.37,7.1-17.14,4.73-17.14,11.83,0-7.1-17.14-8.77-15.46,8.37-8.37-17.14-7.1-17.14-4.73,0-11.83-17.14,7.1-15.46,8.77-8.37-8.37C131.82,312.77,134.18,312.77,127.09,295.63Z"/><polygon class="cls-12" points="130.64 304.2 127.29 307.55 127.29 312.28 130.64 315.63 135.37 315.63 138.71 312.28 138.71 307.55 135.37 304.2 130.64 304.2"/><path class="cls-13" d="M1090,661.32a16.6,16.6,0,1,0,17,16.59A16.8,16.8,0,0,0,1090,661.32Zm5.71,19-3.35,3.35h-4.73l-3.35-3.35v-4.73l3.35-3.35h4.73l3.35,3.35Z"/><path class="cls-3" d="M1084.09,663.63c7.1,17.14,8.77,15.46-8.37,8.37,17.14,7.1,17.14,4.73,0,11.83,17.14-7.1,15.46-8.77,8.37,8.37,7.1-17.14,4.73-17.14,11.83,0-7.1-17.14-8.77-15.46,8.37-8.37-17.14-7.1-17.14-4.73,0-11.83-17.14,7.1-15.46,8.77-8.37-8.37C1088.82,680.77,1091.18,680.77,1084.09,663.63Z"/><polygon class="cls-14" points="1087.64 672.2 1084.29 675.55 1084.29 680.28 1087.64 683.63 1092.37 683.63 1095.71 680.28 1095.71 675.55 1092.37 672.2 1087.64 672.2"/><path class="cls-15" d="M36,555.32a16.6,16.6,0,1,0,0,33.18,16.6,16.6,0,1,0,0-33.18Zm5.71,19-3.35,3.35H33.64l-3.35-3.35v-4.73l3.35-3.35h4.73l3.35,3.35Z"/><path class="cls-3" d="M30.09,557.63c7.1,17.14,8.77,15.46-8.37,8.37,17.14,7.1,17.14,4.73,0,11.83,17.14-7.1,15.46-8.77,8.37,8.37,7.1-17.14,4.73-17.14,11.83,0-7.1-17.14-8.77-15.46,8.37-8.37-17.14-7.1-17.14-4.73,0-11.83-17.14,7.1-15.46,8.77-8.37-8.37C34.82,574.77,37.18,574.77,30.09,557.63Z"/><polygon class="cls-15" points="33.64 566.2 30.29 569.55 30.29 574.28 33.64 577.63 38.37 577.63 41.71 574.28 41.71 569.55 38.37 566.2 33.64 566.2"/><path class="cls-16" d="M984,34.32a16.6,16.6,0,1,0,17,16.59A16.8,16.8,0,0,0,984,34.32Zm5.71,19-3.35,3.35h-4.73l-3.35-3.35V48.55l3.35-3.35h4.73l3.35,3.35Z"/><path class="cls-3" d="M978.09,36.63c7.1,17.14,8.77,15.46-8.37,8.37,17.14,7.1,17.14,4.73,0,11.83,17.14-7.1,15.46-8.77,8.37,8.37,7.1-17.14,4.73-17.14,11.83,0-7.1-17.14-8.77-15.46,8.37-8.37-17.14-7.1-17.14-4.73,0-11.83-17.14,7.1-15.46,8.77-8.37-8.37C982.82,53.77,985.18,53.77,978.09,36.63Z"/><polygon class="cls-16" points="981.64 45.2 978.29 48.55 978.29 53.28 981.64 56.63 986.37 56.63 989.71 53.28 989.71 48.55 986.37 45.2 981.64 45.2"/><path class="cls-17" d="M206,463.32a16.6,16.6,0,1,0,17,16.59A16.8,16.8,0,0,0,206,463.32Zm5.71,19-3.35,3.35h-4.73l-3.35-3.35v-4.73l3.35-3.35h4.73l3.35,3.35Z"/><path class="cls-3" d="M200.09,465.63c7.1,17.14,8.77,15.46-8.37,8.37,17.14,7.1,17.14,4.73,0,11.83,17.14-7.1,15.46-8.77,8.37,8.37,7.1-17.14,4.73-17.14,11.83,0-7.1-17.14-8.77-15.46,8.37-8.37-17.14-7.1-17.14-4.73,0-11.83-17.14,7.1-15.46,8.77-8.37-8.37C204.82,482.77,207.18,482.77,200.09,465.63Z"/><polygon class="cls-17" points="203.64 474.2 200.29 477.55 200.29 482.28 203.64 485.63 208.37 485.63 211.71 482.28 211.71 477.55 208.37 474.2 203.64 474.2"/><path class="cls-18" d="M1202,356.32a16.6,16.6,0,1,0,17,16.59A16.8,16.8,0,0,0,1202,356.32Zm5.71,19-3.35,3.35h-4.73l-3.35-3.35v-4.73l3.35-3.35h4.73l3.35,3.35Z"/><path class="cls-3" d="M1196.09,358.63c7.1,17.14,8.77,15.46-8.37,8.37,17.14,7.1,17.14,4.73,0,11.83,17.14-7.1,15.46-8.77,8.37,8.37,7.1-17.14,4.73-17.14,11.83,0-7.1-17.14-8.77-15.46,8.37-8.37-17.14-7.1-17.14-4.73,0-11.83-17.14,7.1-15.46,8.77-8.37-8.37C1200.82,375.77,1203.18,375.77,1196.09,358.63Z"/><polygon class="cls-18" points="1199.64 367.2 1196.29 370.55 1196.29 375.28 1199.64 378.63 1204.37 378.63 1207.71 375.28 1207.71 370.55 1204.37 367.2 1199.64 367.2"/><text class="cls-19" transform="translate(55.09 58.84)">Explore the edges <tspan x="0" y="43.2">of your imagination. </tspan><tspan x="0" y="86.4">Go places you’ve </tspan><tspan x="0" y="129.6">n</tspan><tspan class="cls-20" x="19.86" y="129.6">e</tspan><tspan x="38.71" y="129.6" xml:space="preserve">ver thought    </tspan><tspan x="0" y="172.8">possible.</tspan></text></g></svg>