<svg xmlns="http://www.w3.org/2000/svg" viewBox="0 0 1366 768"><defs><style>.cls-1{fill:#fff;}.cls-2{fill:#00bcd4;}.cls-3{fill:#4caf50;}</style></defs><title>WorldInProgress</title><g id="BG"><rect x="0.5" y="0.5" width="1365" height="767"/><path d="M1365,1V767H1V1H1365m1-1H0V768H1366V0Z"/></g><g id="Earth"><path class="cls-1" d="M675.5,753.5A351,351,0,0,1,427.31,154.31,351,351,0,1,1,923.69,650.69,348.7,348.7,0,0,1,675.5,753.5Z"/><path d="M675.5,52A350.59,350.59,0,0,1,811.93,725.46,350.59,350.59,0,0,1,539.07,79.54,348.3,348.3,0,0,1,675.5,52m0-1C481.37,51,324,208.37,324,402.5S481.37,754,675.5,754,1027,596.63,1027,402.5,869.63,51,675.5,51Z"/><path class="cls-2" d="M675.5,753.5A351,351,0,0,1,427.31,154.31,351,351,0,1,1,923.69,650.69,348.7,348.7,0,0,1,675.5,753.5Z"/><path d="M675.5,52A350.59,350.59,0,0,1,811.93,725.46,350.59,350.59,0,0,1,539.07,79.54,348.3,348.3,0,0,1,675.5,52m0-1C481.37,51,324,208.37,324,402.5S481.37,754,675.5,754,1027,596.63,1027,402.5,869.63,51,675.5,51Z"/></g><g id="Land"><rect class="cls-3" x="430" y="165" width="198" height="64" rx="32" ry="32"/><rect class="cls-3" x="461" y="584" width="75" height="113" rx="37.5" ry="37.5"/><path class="cls-3" d="M793,149.5a34.5,34.5,0,0,1,0-69H922a34.5,34.5,0,0,1,0,69Z"/><path d="M922,81a34,34,0,0,1,0,68H793a34,34,0,0,1,0-68H922m0-1H793a35.1,35.1,0,0,0-35,35h0a35.1,35.1,0,0,0,35,35H922a35.1,35.1,0,0,0,35-35h0a35.1,35.1,0,0,0-35-35Z"/><path class="cls-3" d="M868,648.5a43.5,43.5,0,0,1,0-87h137a43.5,43.5,0,0,1,0,87Z"/><path d="M1005,562a43,43,0,0,1,0,86H868a43,43,0,0,1,0-86h137m0-1H868a44.13,44.13,0,0,0-44,44h0a44.13,44.13,0,0,0,44,44h137a44.13,44.13,0,0,0,44-44h0a44.13,44.13,0,0,0-44-44Z"/><path class="cls-3" d="M863,540.5a71.5,71.5,0,0,1,0-143h194a71.5,71.5,0,0,1,0,143Z"/><path d="M1057,398a71,71,0,0,1,0,142H863a71,71,0,0,1,0-142h194m0-1H863a72.21,72.21,0,0,0-72,72h0a72.21,72.21,0,0,0,72,72h194a72.21,72.21,0,0,0,72-72h0a72.21,72.21,0,0,0-72-72Z"/><rect class="cls-2" x="508" y="607" width="98" height="55" rx="27.5" ry="27.5"/><rect class="cls-2" x="386" y="607" width="98" height="55" rx="27.5" ry="27.5"/><rect class="cls-3" x="484" y="202" width="78" height="98" rx="12" ry="12"/><rect class="cls-3" x="224" y="277" width="347" height="63" rx="31.5" ry="31.5"/><rect class="cls-2" x="397" y="219" width="111" height="59" rx="29.5" ry="29.5"/><rect class="cls-2" x="536" y="218" width="122" height="65" rx="32.5" ry="32.5"/><rect class="cls-3" x="283" y="654" width="294" height="86" rx="12" ry="12"/><rect class="cls-3" x="216" y="541" width="412" height="73" rx="12" ry="12"/></g></svg>